<svg width="1203" height="225" viewBox="0 0 1203 225" fill="none" xmlns="http://www.w3.org/2000/svg">
<g style="mix-blend-mode:luminosity" opacity="0.4">
<path d="M1011.72 206.402C1011.72 208.863 1012.11 211.233 1012.84 213.45H1198.38C1201.03 208.897 1202.54 203.605 1202.54 197.958C1202.54 180.889 1188.71 167.053 1171.64 167.053C1163.9 167.053 1156.83 169.893 1151.42 174.585C1148.3 168.698 1142.11 164.69 1134.99 164.69C1134.39 164.69 1133.8 164.717 1133.22 164.774C1134.36 162.046 1134.99 159.053 1134.99 155.908C1134.99 143.226 1124.71 132.941 1112.02 132.941C1099.34 132.941 1089.06 143.226 1089.06 155.908C1089.06 156.04 1089.06 156.172 1089.06 156.304C1083.89 150.017 1076.05 146.009 1067.28 146.009C1051.7 146.009 1039.08 158.636 1039.08 174.213C1039.08 178.065 1039.85 181.735 1041.25 185.08C1039.02 184.342 1036.65 183.943 1034.18 183.943C1021.77 183.943 1011.72 193.997 1011.72 206.402Z" fill="#7F1400"/>
<path d="M995.933 138.053H976.116C963.946 138.053 952.275 142.888 943.67 151.493L933.521 161.642C929.391 165.772 922.695 165.772 918.564 161.642L917.078 160.155C911.039 154.116 902.848 150.723 894.308 150.723H893.789C885.249 150.723 877.058 154.116 871.02 160.155L866.611 164.564C860.012 171.163 851.061 174.87 841.728 174.87H817.921C808.692 174.87 799.841 178.536 793.315 185.062L785.731 192.647L775.249 203.129H995.933V138.053V138.053Z" fill="#7F1400"/>
<path d="M999.013 140.658H979.195C967.026 140.658 955.355 145.492 946.749 154.098L936.601 164.246C932.47 168.376 925.774 168.376 921.644 164.246L920.157 162.76C914.118 156.721 905.928 153.328 897.388 153.328H896.869C888.329 153.328 880.138 156.721 874.099 162.76L869.691 167.168C863.091 173.767 854.141 177.475 844.808 177.475H821.001C811.772 177.475 802.921 181.141 796.395 187.667L788.811 195.252L778.329 205.733H999.013V140.658V140.658Z" fill="#6A0D00"/>
<path d="M911.667 210.772C911.667 212.878 912.005 214.905 912.631 216.802H1071.35C1073.61 212.907 1074.91 208.38 1074.91 203.549C1074.91 188.947 1063.07 177.111 1048.47 177.111C1041.86 177.111 1035.81 179.541 1031.17 183.555C1028.51 178.518 1023.22 175.089 1017.12 175.089C1016.61 175.089 1016.1 175.112 1015.61 175.162C1016.58 172.827 1017.12 170.267 1017.12 167.577C1017.12 156.728 1008.33 147.93 997.476 147.93C986.627 147.93 977.828 156.728 977.828 167.577C977.828 167.69 977.828 167.803 977.831 167.916C973.406 162.538 966.702 159.109 959.195 159.109C945.87 159.109 935.07 169.911 935.07 183.236C935.07 186.532 935.731 189.671 936.929 192.533C935.027 191.901 932.994 191.56 930.88 191.56C920.268 191.56 911.667 200.161 911.667 210.772V210.772Z" fill="#300600"/>
</g>
<g style="mix-blend-mode:luminosity" opacity="0.56">
<path d="M175.488 197.233C175.488 199.484 175.126 201.652 174.457 203.681H4.72278C2.30089 199.515 0.916443 194.674 0.916443 189.508C0.916443 173.893 13.5744 161.235 29.19 161.235C36.2638 161.235 42.7306 163.833 47.6859 168.126C50.5384 162.74 56.1968 159.073 62.7132 159.073C63.2614 159.073 63.8033 159.098 64.3359 159.151C63.2891 156.654 62.7132 153.916 62.7132 151.039C62.7132 139.437 72.119 130.028 83.7239 130.028C95.3257 130.028 104.735 139.437 104.735 151.039C104.735 151.16 104.735 151.281 104.732 151.402C109.464 145.65 116.634 141.983 124.662 141.983C138.911 141.983 150.461 153.535 150.461 167.785C150.461 171.31 149.754 174.667 148.472 177.727C150.507 177.052 152.681 176.686 154.942 176.686C166.29 176.686 175.488 185.885 175.488 197.233V197.233Z" fill="#8A1600"/>
<path d="M219.675 210.55C219.675 212.593 219.346 214.56 218.739 216.4H64.7381C62.5407 212.621 61.2847 208.229 61.2847 203.541C61.2847 189.373 72.7692 177.889 86.9374 177.889C93.3555 177.889 99.2229 180.246 103.719 184.141C106.307 179.254 111.441 175.927 117.353 175.927C117.851 175.927 118.342 175.95 118.826 175.997C117.876 173.733 117.353 171.248 117.353 168.638C117.353 158.112 125.887 149.575 136.417 149.575C146.943 149.575 155.48 158.112 155.48 168.638C155.48 168.748 155.48 168.857 155.477 168.967C159.771 163.748 166.276 160.421 173.56 160.421C186.489 160.421 196.967 170.903 196.967 183.832C196.967 187.03 196.326 190.076 195.163 192.852C197.009 192.239 198.982 191.908 201.033 191.908C211.329 191.908 219.675 200.254 219.675 210.55V210.55Z" fill="#561000"/>
</g>
<g style="mix-blend-mode:luminosity" opacity="0.45">
<path d="M270.992 104.456L251.572 104.978C250.259 105.003 248.061 105.091 246.86 105.088C242.748 105.119 238.671 104.152 234.96 102.343C232.807 101.262 230.755 99.9141 228.96 98.3001C228.837 98.2782 221.577 91.1332 221.219 90.8041L207.319 77.2587L202.094 82.3394L215.273 96.6394C216.751 98.1964 222.316 104.431 223.823 105.725C228.617 110.14 234.6 113.201 240.999 114.523C244.416 115.298 248.124 115.303 251.572 115.394L270.992 115.915V104.456V104.456Z" fill="#56100C"/>
<path d="M311.682 87.8036C311.662 88.3694 311.615 89.7157 311.596 90.2566C311.38 96.9341 308.225 103.514 303.132 107.783L283.156 124.633L290.93 133.228L309.756 114.965C313.407 111.39 316.195 106.997 317.872 102.246C319.549 97.6216 319.946 92.6774 319.633 87.8036H311.682V87.8036Z" fill="#56100C"/>
<path d="M261.944 96.2965C261.825 107.786 267.017 119.044 275.336 126.95C277.484 129.273 283.194 134.976 285.104 137.334C288.42 141.448 290.519 146.507 291.135 151.74C291.548 154.518 291.1 162.621 291.107 165.503C290.834 178.189 288.902 195.377 283.158 200.111L316.8 224.81V212.796C316.8 209.248 315.757 205.778 313.798 202.825L310.364 197.645C308.119 194.26 306.879 190.307 306.788 186.246L306.766 185.27L306.34 165.503C306.165 158.821 306.424 150.201 304.199 143.862C302.155 137.271 298.468 131.19 293.556 126.334C290.394 123.2 284.446 117.742 281.374 114.552C276.749 109.556 274 102.937 273.706 96.0726L273.258 76.4181H262.357L261.944 96.2965L261.944 96.2965Z" fill="#56100C"/>
<path d="M347.667 30.8258H317.936C316.007 30.8258 314.158 31.5919 312.794 32.9555L311.187 34.5623C308.348 37.4019 304.122 39.0268 301.282 36.1872L272.497 5.1823C269.247 1.93275 264.84 0.107178 260.244 0.107178H232.111C227.515 0.107178 223.108 1.93276 219.859 5.1823L211.619 13.9019C208.369 17.1514 203.962 18.977 199.366 18.977H177.099C172.503 18.977 168.096 20.8026 164.846 24.0521L141.069 47.6703L134.396 54.0871C139.851 54.0871 183.716 54.4874 188.155 53.6947H138.867C132.055 53.6947 125.522 56.4007 120.705 61.2174L97.6301 84.2925H406.778L359.957 35.9386C356.704 32.666 352.281 30.8258 347.667 30.8258V30.8258Z" fill="#F05400"/>
<path d="M354.074 32.4508H324.343C322.415 32.4508 320.565 33.2169 319.202 34.5805L317.595 36.1872C314.755 39.0269 310.151 39.0269 307.312 36.1872L277.577 6.45257C274.328 3.20302 269.92 1.37744 265.325 1.37744H237.191C232.596 1.37744 228.188 3.20302 224.939 6.45257L216.065 15.3268C212.815 18.5763 208.408 20.4019 203.812 20.4019H181.545C176.949 20.4019 172.542 22.2275 169.292 25.477L144.955 49.4143L181.483 49.236C186.938 49.236 190.327 49.8374 194.185 53.6948H144.896C138.084 53.6948 131.551 56.4008 126.735 61.2175L103.66 84.2925H412.808L366.364 37.5635C363.112 34.291 358.688 32.4508 354.074 32.4508V32.4508Z" fill="#9D1E00"/>
<path d="M263.172 87.5719L274.824 87.6243L368.142 88.0343L342.307 62.1995C337.94 57.8325 332.014 55.3773 325.84 55.3773H305.006C298.833 55.3773 292.907 57.8325 288.54 62.1995L263.172 87.5719V87.5719Z" fill="#F05400"/>
<path d="M274.824 87.6242L368.142 88.0342L342.527 62.4187C339.475 60.998 336.119 60.24 332.691 60.24H311.857C305.684 60.24 299.758 62.6952 295.391 67.0622L274.824 87.6242V87.6242Z" fill="#B63000"/>
<path d="M255.859 36.8848H260.605V32.1387H255.859V36.8848Z" fill="#DB6440"/>
<path d="M271.863 51.1583H274.236V48.7853H271.863V51.1583Z" fill="#DB6440"/>
</g>
<g style="mix-blend-mode:luminosity">
<path d="M471.276 199.257C471.276 200.624 471.055 201.941 470.649 203.174H367.537C366.066 200.643 365.225 197.702 365.225 194.564C365.225 185.078 372.914 177.388 382.401 177.388C386.698 177.388 390.626 178.967 393.637 181.575C395.37 178.303 398.807 176.075 402.766 176.075C403.099 176.075 403.428 176.09 403.752 176.122C403.116 174.606 402.766 172.942 402.766 171.194C402.766 164.146 408.48 158.431 415.53 158.431C422.577 158.431 428.293 164.146 428.293 171.194C428.293 171.268 428.293 171.341 428.292 171.415C431.166 167.921 435.522 165.693 440.399 165.693C449.055 165.693 456.071 172.711 456.071 181.368C456.071 183.509 455.642 185.548 454.864 187.407C456.1 186.997 457.42 186.775 458.794 186.775C465.688 186.775 471.276 192.363 471.276 199.257V199.257Z" fill="#300600"/>
</g>
</svg>
