<svg width="1920" height="437" viewBox="0 0 1920 437" fill="none" xmlns="http://www.w3.org/2000/svg">
<mask id="mask0_17_10218" style="mask-type:alpha" maskUnits="userSpaceOnUse" x="0" y="0" width="1922" height="408">
<rect x="0.382812" width="1920.78" height="407.028" fill="black"/>
</mask>
<g mask="url(#mask0_17_10218)">
<path d="M1920.27 0H0.382812V242.476H1920.27V0Z" fill="#FFDC31"/>
<path d="M358.197 0L412.145 53.9479C432.135 73.9373 459.246 85.1673 487.516 85.1673H709.824C738.093 85.1673 765.205 96.3973 785.194 116.387L804.704 135.896C824.693 155.886 851.805 167.116 880.074 167.116H1304.99C1333.26 167.116 1360.37 155.886 1380.36 135.896L1515.66 0.6018L358.197 0Z" fill="#F2B200"/>
<path d="M1571.25 403.304H733.303L934.878 204.54H1275.42C1297.84 204.54 1319.63 211.885 1337.48 225.463L1571.25 403.304Z" fill="#F2853B"/>
<path d="M1134.94 69.0623C1134.91 70.4206 1134.85 73.693 1134.82 74.9942C1134.83 75.355 1134.8 76.1365 1134.8 76.4772C1134.77 78.3714 1135.08 80.2746 1135.78 82.0487C1136.53 84.0003 1137.72 85.7818 1139.2 87.2606C1139.63 87.7021 1140.82 88.9377 1141.26 89.3976C1143.24 91.4517 1146.14 94.4743 1148.12 96.5208C1150.35 98.8284 1151.68 101.969 1151.76 105.177C1151.72 108.868 1151.43 122.35 1151.37 126.241L1159.89 126.241C1159.8 121.986 1159.59 108.806 1159.46 104.795C1159.38 103.786 1159.25 102.772 1159.04 101.786C1158.27 98.2323 1156.54 94.9061 1154.07 92.2421C1151.73 89.8777 1148.51 86.8714 1146.12 84.5387C1145.51 83.9564 1144.31 82.7984 1143.71 82.224C1142.18 80.7749 1141.26 78.7098 1141.2 76.5929C1141.18 75.6123 1141.16 74.0037 1141.13 73.0168L1141.06 69.0623H1134.94L1134.94 69.0623Z" fill="#933303"/>
<path d="M1134.27 76.4779C1134.24 78.371 1134.56 80.2746 1135.25 82.0479C1136 84.0001 1137.19 85.7821 1138.67 87.2601C1139.1 87.7013 1140.29 88.9379 1140.73 89.3982C1142.71 91.4511 1145.62 94.4749 1147.59 96.5209C1149.82 98.8292 1151.15 101.969 1151.23 105.177C1151.19 108.868 1150.9 122.349 1150.84 126.242H1153.48C1153.48 126.031 1153.48 125.549 1153.48 125.549C1153.54 121.656 1153.83 108.175 1153.86 104.484C1153.78 101.276 1152.46 98.1344 1150.22 95.8279C1148.25 93.7819 1145.35 90.7581 1143.37 88.7051C1142.92 88.2449 1141.73 87.0083 1141.31 86.5671C1139.82 85.0891 1138.63 83.3071 1137.88 81.3549C1137.19 79.5816 1136.87 77.678 1136.9 75.7849C1136.9 75.4427 1136.93 74.6611 1136.93 74.3016C1136.96 73.1883 1137 70.6265 1137.03 69.0616H1134.41C1134.38 70.4198 1134.33 73.6937 1134.3 74.9946C1134.3 75.3559 1134.27 76.1357 1134.27 76.4779Z" fill="#D0631C"/>
<path d="M1153.56 69.0623L1153.44 71.9324C1153.4 72.6879 1153.39 73.8386 1153.24 74.563C1152.87 76.7593 1151.69 78.6932 1150.03 80.1136C1148.37 81.6375 1144.84 84.8779 1143.15 86.432L1146.85 90.1303L1150.74 85.9008C1151.45 85.1304 1153.02 83.4347 1153.69 82.6837C1155.57 80.5734 1156.76 77.8198 1157 75.034C1157.11 74.0951 1157.02 72.8771 1156.98 71.9323L1156.86 69.0623H1153.56Z" fill="#933303"/>
<path d="M1172.1 66.0978C1170.54 67.5783 1167.37 70.6081 1165.85 72.0523C1164.67 73.1554 1163.06 73.7779 1161.45 73.7325C1160.57 73.7127 1155.79 73.5963 1154.82 73.5729V77.0154L1160.13 76.8868L1161.47 76.8535C1163.06 76.813 1164.64 76.3537 1166 75.531C1166.67 75.1275 1167.29 74.6235 1167.84 74.0629C1168.15 73.7419 1169.8 72.0112 1170.14 71.6537L1173.81 67.8047L1172.1 66.0979V66.0978Z" fill="#933303"/>
<path d="M1202.28 69.1219H1087.23L1095.5 60.848C1098.19 58.1578 1101.84 56.6465 1105.65 56.6465H1110.82C1114.35 56.6465 1117.74 55.2429 1120.24 52.7444L1125.89 47.0985C1129.87 43.113 1135.28 40.874 1140.91 40.874H1159.6C1164.96 40.874 1170.1 43.0032 1173.89 46.793L1181.06 53.9583H1170.73C1168.97 53.9583 1167.27 54.66 1166.02 55.9088H1185.16C1189.47 55.9088 1193.6 57.6208 1196.64 60.6677L1205.09 69.1219H1202.28V69.1219Z" fill="#F28620"/>
<path d="M1206.23 69.1219H1091.18L1099.45 60.848C1102.14 58.1578 1105.79 56.6465 1109.59 56.6465H1114.77C1118.3 56.6465 1121.69 55.2429 1124.19 52.7444L1129.83 47.0985C1133.82 43.113 1139.22 40.874 1144.86 40.874H1163.55C1168.91 40.874 1174.05 43.0032 1177.84 46.793L1185 53.9583H1174.68C1172.91 53.9583 1171.22 54.66 1169.97 55.9088H1189.1C1193.41 55.9088 1197.54 57.6208 1200.59 60.6677L1209.04 69.1219H1206.23V69.1219Z" fill="#D0631C"/>
<path d="M1118.25 78.0425H1120.26V62.5178H1118.25V78.0425Z" fill="#D0631C"/>
<path d="M1112.68 73.0559H1114.69V62.5178H1112.68V73.0559Z" fill="#D0631C"/>
<path d="M1183.25 78.325H1185.26V67.7869H1183.25V78.325Z" fill="#D0631C"/>
<path d="M1134.37 71.3999H1140.6V69.1605H1134.37V71.3999Z" fill="#933303"/>
<path d="M1146.16 55.8747H1148.68V53.3518H1146.16V55.8747Z" fill="#F28620"/>
<path d="M1175.78 62.7045H1178.26V60.2274H1175.78V62.7045Z" fill="#F28620"/>
<path d="M1920.27 110.541V403.304H1626.6L1354.81 196.531C1336.27 182.424 1313.62 174.795 1290.33 174.795H965.039L966.33 173.522L989.136 151.035C1015.44 125.091 1050.91 110.541 1087.86 110.541H1920.27V110.541Z" fill="#BC4D1D"/>
<path d="M1626.6 403.304H1599.41L1345.05 209.791C1327.21 196.222 1305.4 188.868 1282.99 188.868H950.771L965.038 174.795H1290.33C1313.62 174.795 1336.27 182.424 1354.81 196.531L1626.6 403.304Z" fill="#A03703"/>
<path d="M1599.41 403.304H1571.25L1337.48 225.463C1319.63 211.885 1297.84 204.54 1275.42 204.54H934.879L950.772 188.867H1282.99C1305.4 188.867 1327.21 196.222 1345.05 209.79L1599.41 403.304Z" fill="#CE6B21"/>
<path d="M0.382812 83.1634H151.329C197.175 83.1634 241.144 101.376 273.563 133.795L307.466 167.698C339.885 200.117 383.854 218.329 429.701 218.329H881.108C922.171 218.329 962.14 231.571 995.08 256.089L1190.83 401.789H0.382812V83.1634Z" fill="#F05400"/>
<path d="M196.26 317.786C196.26 321.888 195.6 325.838 194.381 329.534H-114.877C-119.29 321.945 -121.812 313.124 -121.812 303.712C-121.812 275.26 -98.7497 252.197 -70.2977 252.197C-57.4091 252.197 -45.6265 256.932 -36.5977 264.753C-31.4005 254.94 -21.0908 248.258 -9.2179 248.258C-8.21908 248.258 -7.23154 248.303 -6.26111 248.399C-8.16837 243.851 -9.2179 238.863 -9.2179 233.62C-9.2179 212.482 7.91978 195.338 29.064 195.338C50.2027 195.338 67.3462 212.482 67.3462 233.62C67.3462 233.84 67.3462 234.061 67.3405 234.281C75.963 223.802 89.0265 217.12 103.653 217.12C129.616 217.12 150.659 238.169 150.659 264.132C150.659 270.554 149.373 276.671 147.036 282.246C150.744 281.016 154.705 280.35 158.825 280.35C179.501 280.35 196.26 297.11 196.26 317.786H196.26Z" fill="#7F1400"/>
<path d="M-0.787109 278.711H32.2454C52.5302 278.711 71.9841 286.769 86.3277 301.113L103.244 318.029C110.128 324.913 121.29 324.913 128.174 318.029L130.652 315.551C140.718 305.485 154.37 299.83 168.605 299.83H169.47C183.706 299.83 197.358 305.485 207.424 315.551L214.772 322.899C225.772 333.899 240.691 340.079 256.247 340.079H295.929C311.313 340.079 326.066 346.19 336.943 357.067L349.586 369.71L367.057 387.181H-0.787109V278.711V278.711Z" fill="#7F1400"/>
<path d="M-5.91992 283.053H27.1126C47.3974 283.053 66.8513 291.111 81.1949 305.454L98.1111 322.371C104.995 329.255 116.157 329.255 123.041 322.371L125.519 319.892C135.585 309.827 149.237 304.172 163.473 304.172H164.338C178.573 304.172 192.225 309.827 202.291 319.892L209.639 327.241C220.639 338.241 235.558 344.42 251.114 344.42H290.796C306.18 344.42 320.933 350.531 331.811 361.409L344.453 374.051L361.925 391.523H-5.91992V283.053V283.053Z" fill="#6A0D00"/>
<path d="M711.195 192.385C731.219 192.385 747.453 176.152 747.453 156.127C747.453 136.103 731.219 119.87 711.195 119.87C691.171 119.87 674.938 136.103 674.938 156.127C674.938 176.152 691.171 192.385 711.195 192.385Z" fill="white"/>
<path d="M325.717 188.949C325.831 193.995 326.03 206.152 326.135 210.986C326.132 212.326 326.235 215.23 326.239 216.495C326.351 223.532 325.172 230.603 322.598 237.194C319.817 244.444 315.392 251.062 309.876 256.556C308.293 258.196 303.88 262.786 302.232 264.495C294.873 272.126 284.082 283.355 276.753 290.958C268.453 299.531 263.525 311.197 263.237 323.116C263.372 336.829 264.44 386.915 264.674 401.372L233.023 401.371C233.369 385.562 234.136 336.599 234.613 321.696C234.894 317.949 235.398 314.18 236.179 310.518C239.048 297.316 245.473 284.96 254.642 275.063C263.316 266.279 275.305 255.11 284.182 246.444C286.434 244.281 290.893 239.979 293.113 237.845C298.817 232.461 302.224 224.79 302.44 216.925C302.524 213.282 302.617 207.306 302.695 203.64L302.973 188.949H325.717L325.717 188.949Z" fill="#8A1600"/>
<path d="M328.194 216.498C328.303 223.531 327.129 230.603 324.555 237.191C321.774 244.443 317.347 251.063 311.83 256.554C310.25 258.193 305.836 262.787 304.184 264.497C296.829 272.124 286.034 283.358 278.704 290.958C270.406 299.534 265.476 311.2 265.193 323.117C265.328 336.829 266.393 386.912 266.625 401.372H256.814C256.834 400.591 256.843 398.797 256.843 398.797C256.611 384.338 255.54 334.254 255.404 320.543C255.695 308.625 260.624 296.953 268.922 288.384C276.252 280.783 287.04 269.549 294.402 261.923C296.048 260.213 300.461 255.619 302.049 253.98C307.565 248.489 311.985 241.869 314.766 234.616C317.341 228.028 318.522 220.956 318.412 213.923C318.405 212.652 318.302 209.749 318.302 208.413C318.212 204.277 318.057 194.76 317.941 188.946H327.671C327.787 193.992 327.981 206.155 328.09 210.988C328.084 212.33 328.187 215.227 328.194 216.498Z" fill="#B63000"/>
<path d="M256.535 188.949L256.984 199.611C257.128 202.418 257.161 206.693 257.716 209.384C259.105 217.543 263.489 224.728 269.668 230.004C275.827 235.666 288.921 247.704 295.201 253.477L281.462 267.217L267.017 251.504C264.399 248.642 258.56 242.342 256.057 239.552C249.06 231.713 244.648 221.483 243.773 211.133C243.366 207.646 243.703 203.121 243.828 199.611L244.276 188.949H256.535L256.535 188.949Z" fill="#8A1600"/>
<path d="M187.661 177.936C193.434 183.436 205.243 194.691 210.884 200.057C215.252 204.155 221.242 206.468 227.219 206.299C230.473 206.225 248.245 205.793 251.865 205.706V218.495L232.121 218.017L227.151 217.893C221.251 217.743 215.365 216.036 210.336 212.98C207.84 211.481 205.508 209.609 203.476 207.526C202.332 206.334 196.211 199.904 194.944 198.576L181.32 184.277L187.661 177.936Z" fill="#8A1600"/>
<path d="M311.655 119.372L337.015 94.0119C342.513 88.5147 349.968 85.4265 357.742 85.4265H373.01C380.785 85.4265 388.24 88.5147 393.737 94.0119L430.309 130.583H302.312L311.655 119.372Z" fill="#B63000"/>
<path d="M309.554 120.011L333.468 96.0971C338.652 90.9134 345.683 88.0012 353.013 88.0012H367.411C374.742 88.0012 381.772 90.9134 386.956 96.0971L421.442 130.583H300.744L309.554 120.011Z" fill="#7F1400"/>
<path d="M75.5314 189.17H502.952L472.214 158.432C462.22 148.438 448.665 142.823 434.531 142.823H415.31C402.184 142.823 389.595 137.609 380.313 128.327L359.338 107.352C344.532 92.5462 324.451 84.2283 303.512 84.2283H234.083C214.171 84.2283 195.075 92.1381 180.996 106.218L154.376 132.837H192.737C199.299 132.837 205.592 135.444 210.231 140.083H139.149C123.145 140.083 107.798 146.443 96.4847 157.763L65.0957 189.17H75.5314V189.17Z" fill="#F05400"/>
<path d="M60.8751 189.17H488.296L457.558 158.432C447.563 148.438 434.009 142.823 419.875 142.823H400.654C387.527 142.823 374.939 137.609 365.657 128.327L344.682 107.352C329.876 92.5462 309.795 84.2283 288.856 84.2283H219.427C199.515 84.2283 180.419 92.1381 166.339 106.218L139.72 132.837H178.081C184.643 132.837 190.935 135.444 195.575 140.083H124.493C108.489 140.083 93.1414 146.443 81.8284 157.763L50.4395 189.17H60.8751V189.17Z" fill="#B63000"/>
<path d="M373.785 188.946H366.309V246.621H373.785V188.946Z" fill="#B63000"/>
<path d="M394.48 188.946H387.004V228.096H394.48V188.946Z" fill="#B63000"/>
<path d="M231.522 100.339L256.593 75.2677C262.59 69.2701 270.725 65.9007 279.207 65.9007H304.72C313.202 65.9007 321.336 69.2701 327.334 75.2677L361.094 109.028H222.51L231.522 100.339V100.339Z" fill="#B63000"/>
<path d="M327.828 189.313H304.691V197.633H327.828V189.313Z" fill="#8A1600"/>
<path d="M284.023 130.583H274.65V139.956H284.023V130.583Z" fill="#F05400"/>
<path d="M173.994 156.127H164.791V165.329H173.994V156.127Z" fill="#F05400"/>
<path d="M361.094 109.028H346.357L341.769 104.447L312.751 75.4292C309.364 72.0424 304.771 70.1397 299.981 70.1397H263.295C268.096 67.3845 273.574 65.9005 279.207 65.9005H304.719C313.198 65.9005 321.334 69.2686 327.335 75.2629L361.094 109.028L361.094 109.028Z" fill="#F05400"/>
<path d="M1201.8 185.941H1196.04V228.783H1201.8V185.941Z" fill="#A03703"/>
<path d="M1215.15 185.941H1210.33V211.191H1215.15V185.941Z" fill="#A03703"/>
<path d="M1460.34 137.156H1450.34V147.155H1460.34V137.156Z" fill="#DB6440"/>
<path d="M1832.06 316.643H1822.06V326.642H1832.06V316.643Z" fill="#DB6440"/>
<path d="M1882.19 125.584H1872.19V135.583H1882.19V125.584Z" fill="#DB6440"/>
<path d="M1145.11 134.348H1136.31V143.148H1145.11V134.348Z" fill="#DB6440"/>
<path d="M647.516 35.8708H631.5V51.8871H647.516V35.8708Z" fill="#DB6440"/>
<path d="M46.0243 322.38H37.2246V331.18H46.0243V322.38Z" fill="#8A1600"/>
<path d="M115.793 348.126H110.541V353.378H115.793V348.126Z" fill="#B63000"/>
<path d="M439.941 401.789L470.753 371.625C496.925 346.001 532.094 331.652 568.721 331.652H1248.74C1288.7 331.652 1327.03 315.777 1355.28 287.52L1366.22 276.588C1394.47 248.331 1432.8 232.457 1472.76 232.457H1920.35V401.792L439.941 401.789Z" fill="#A91F00"/>
<path d="M0.382812 326.642L11.765 338.024C31.1373 357.396 57.4117 368.279 84.8082 368.279H1470.6C1483.93 368.279 1496.72 362.983 1506.15 353.556C1515.57 344.129 1528.36 338.833 1541.69 338.833H1750.78C1786.16 338.833 1820.1 324.776 1845.12 299.754L1921.53 223.346V401.792H0.382812V326.642V326.642Z" fill="#8A1600"/>
<path d="M1786.26 333.897C1786.26 337.025 1785.76 340.037 1784.83 342.856H1549C1545.63 337.068 1543.71 330.342 1543.71 323.165C1543.71 301.468 1561.29 283.881 1582.99 283.881C1592.82 283.881 1601.8 287.492 1608.69 293.456C1612.65 285.973 1620.51 280.878 1629.57 280.878C1630.33 280.878 1631.08 280.912 1631.82 280.985C1630.37 277.517 1629.57 273.713 1629.57 269.715C1629.57 253.596 1642.64 240.523 1658.76 240.523C1674.88 240.523 1687.95 253.596 1687.95 269.715C1687.95 269.883 1687.95 270.051 1687.95 270.219C1694.52 262.228 1704.49 257.133 1715.64 257.133C1735.44 257.133 1751.49 273.184 1751.49 292.982C1751.49 297.879 1750.5 302.544 1748.72 306.796C1751.55 305.857 1754.57 305.35 1757.71 305.35C1773.48 305.35 1786.26 318.13 1786.26 333.897Z" fill="#8A1600"/>
<path d="M1117.1 326.219C1117.1 328.18 1116.78 330.068 1116.2 331.835H968.354C966.245 328.207 965.039 323.99 965.039 319.49C965.039 305.889 976.065 294.863 989.667 294.863C995.828 294.863 1001.46 297.126 1005.78 300.865C1008.26 296.174 1013.19 292.98 1018.87 292.98C1019.34 292.98 1019.82 293.001 1020.28 293.047C1019.37 290.873 1018.87 288.488 1018.87 285.982C1018.87 275.876 1027.06 267.68 1037.17 267.68C1047.27 267.68 1055.47 275.876 1055.47 285.982C1055.47 286.087 1055.47 286.192 1055.47 286.298C1059.59 281.288 1065.83 278.094 1072.83 278.094C1085.24 278.094 1095.3 288.156 1095.3 300.569C1095.3 303.639 1094.68 306.563 1093.57 309.228C1095.34 308.64 1097.23 308.322 1099.2 308.322C1109.09 308.322 1117.1 316.334 1117.1 326.219Z" fill="#B7300B"/>
<path d="M1060.46 326.219C1060.46 328.18 1060.14 330.068 1059.56 331.835H911.712C909.602 328.207 908.396 323.99 908.396 319.49C908.396 305.889 919.422 294.863 933.024 294.863C939.186 294.863 944.819 297.126 949.135 300.865C951.62 296.174 956.548 292.98 962.225 292.98C962.702 292.98 963.174 293.001 963.638 293.047C962.726 290.873 962.225 288.488 962.225 285.982C962.225 275.876 970.418 267.68 980.526 267.68C990.632 267.68 998.827 275.876 998.827 285.982C998.827 286.087 998.827 286.192 998.825 286.298C1002.95 281.288 1009.19 278.094 1016.18 278.094C1028.6 278.094 1038.66 288.156 1038.66 300.569C1038.66 303.639 1038.04 306.563 1036.92 309.228C1038.7 308.64 1040.59 308.322 1042.56 308.322C1052.45 308.322 1060.46 316.334 1060.46 326.219Z" fill="#A91F00"/>
<path d="M0.0957137 334.594L11.4779 345.976C30.8502 365.348 57.1246 376.231 84.5211 376.231H1470.31C1483.65 376.231 1496.43 370.935 1505.86 361.508V361.508C1515.29 352.081 1528.07 346.785 1541.41 346.785H1750.49C1785.88 346.785 1819.81 332.728 1844.83 307.706L1921.24 231.298L1919.91 409.744H-1.24023L0.0957137 334.594Z" fill="#561000"/>
<path d="M265.356 334.323V339.734C265.356 343.434 267.255 346.876 270.386 348.849C272.923 350.448 274.678 353.032 275.231 355.979L277.537 368.28H262.508L265.356 334.323Z" fill="#B63000"/>
<path d="M1734.29 200.14H1725.49V208.94H1734.29V200.14Z" fill="#DB6440"/>
<path d="M1060.97 238.076H1052.17V246.876H1060.97V238.076Z" fill="#DB6440"/>
<path d="M1245.33 145.663H1236.53V154.463H1245.33V145.663Z" fill="#DB6440"/>
<path d="M897.815 267.906H889.016V276.705H897.815V267.906Z" fill="#F2853B"/>
<path d="M774.798 294.967H765.998V303.767H774.798V294.967Z" fill="#A91F00"/>
<path d="M322.458 293.169H313.658V301.969H322.458V293.169Z" fill="#A91F00"/>
<path d="M702.265 242.221H693.465V251.021H702.265V242.221Z" fill="#A91F00"/>
<path d="M195.543 373.619L173.277 351.353C173.277 351.353 192.871 349.572 195.543 366.939C195.543 366.939 197.325 354.971 211.129 354.971L195.543 373.619Z" fill="#8A1600"/>
<path d="M162.079 330.184H157.199V370.244H162.079V330.184Z" fill="#8A1600"/>
<path d="M582.533 323.48L614.081 357.808V377.801L615.846 376.673C621.336 373.166 624.936 367.322 625.494 360.832C625.58 359.833 625.62 358.851 625.62 357.909C625.62 355.114 625.039 352.349 623.914 349.791L604.077 304.684L582.533 323.48Z" fill="#561000"/>
<path d="M606.35 320.192C606.35 320.192 620.08 346.412 622.217 350.647C624.294 354.761 626.123 362.98 624.031 366.874C624.031 366.874 627.716 358.434 623.915 349.791C620.114 341.147 609.025 315.397 609.025 315.397L606.35 320.192V320.192Z" fill="#F98C41"/>
<path d="M607.687 310.276L596.312 322.243L596.331 321.15V338.158L581.111 321.89L597.443 304.684L607.687 310.276Z" fill="#300600"/>
<path d="M631.162 233.442L655.487 266.563C657.037 268.673 657.41 271.425 656.479 273.872L647.463 297.569H647.179C638.04 297.569 629.784 292.111 626.203 283.702H606.182V252.671L625.682 233.442H631.162Z" fill="#993700"/>
<path d="M654.728 278.475L647.463 297.569H647.181C638.043 297.569 629.785 292.111 626.204 283.7H618.689C621.747 280.642 625.895 278.924 630.219 278.924H635.051L646.883 270.935L654.728 278.475H654.728Z" fill="#F98C41"/>
<path d="M656.479 273.868L654.727 278.474L646.883 270.934L646.88 270.93L641.848 247.983L655.49 266.558C657.037 268.669 657.412 271.421 656.48 273.868H656.479Z" fill="#8C2F00"/>
<path d="M653.017 275.539V276.791L647.518 271.506H648.985C650.054 271.506 651.079 271.932 651.835 272.688C652.217 273.066 652.511 273.511 652.71 273.998C652.912 274.482 653.017 275.007 653.017 275.539Z" fill="#300600"/>
<path d="M638.814 252.166L636.471 249.823C635.415 248.766 633.982 248.173 632.487 248.173H631.858C629.58 248.173 627.538 249.575 626.721 251.701L624.723 256.893L629.637 261.808C631.574 263.745 634.201 264.833 636.941 264.833H640.448L637.179 261.563L634.202 256.759L638.814 252.166Z" fill="#B5520F"/>
<path d="M636.045 255.475L639.393 258.823C640.962 260.392 642.161 262.291 642.904 264.381L644.771 269.64L633.324 257.308L636.045 255.475Z" fill="#8C2F00"/>
<path d="M639.536 251.924L634.621 256.838L638.082 262.436L624.723 256.893L639.536 251.924Z" fill="#300600"/>
<path d="M633.073 256.254V258.464L628.586 257.045L633.073 256.254Z" fill="#F2853B"/>
<path d="M653.197 282.28L652.309 284.615H648.917C646.768 284.615 644.628 284.416 642.524 284.026C640.419 283.635 638.35 283.052 636.342 282.28H653.197Z" fill="#300600"/>
<path d="M439.355 304.885L444.95 340.788C445.892 346.832 445.155 353.019 442.821 358.673L453.672 377.37H479.729L474.91 370.381C473.206 367.91 470.47 366.288 467.472 366.156C467.329 366.15 467.185 366.147 467.04 366.147C464.441 366.147 461.949 367.179 460.111 369.017L459.754 369.374V367.132C459.754 359.651 461.232 352.243 464.104 345.335L467.79 336.47C471.473 327.61 473.369 318.11 473.369 308.516V304.885L446.875 278.391L439.355 304.885V304.885Z" fill="#561000"/>
<path d="M473.37 304.885V308.518C473.37 312 473.118 315.473 472.624 318.904H451.841L442.93 327.815L439.355 304.885L446.875 278.391L473.37 304.885Z" fill="#300600"/>
<path d="M405.08 368.677C406.492 367.265 408.407 366.471 410.404 366.471H411.121C416.438 366.471 419.551 368.583 423.311 372.343L427.977 377.537H396.48L392.238 352.609L405.446 327.309C408.857 320.004 410.624 312.039 410.624 303.977V283.258C410.624 277.121 413.062 271.236 417.402 266.896L426.701 257.596C432.07 252.228 439.35 249.212 446.942 249.212H519.648C521.293 249.212 522.87 248.559 524.033 247.396L535.5 235.929L579.981 231.819L579.308 252.283L569.832 261.758C559.95 271.64 554.399 285.043 554.399 299.019V368.897C555.599 367.697 557.226 367.023 558.923 367.023H559.835C560.123 367.023 560.409 367.033 560.694 367.054C564.427 367.321 567.744 369.545 569.652 372.764L572.487 377.549H549.53C545.337 377.549 541.635 374.811 540.406 370.802L527.227 327.79C526.031 323.886 525.423 319.825 525.423 315.742C525.423 311.653 527.047 307.731 529.939 304.84L540.506 294.272L527.825 304.73C524.274 307.659 522.217 312.022 522.217 316.626V321.921H498.663C493.106 321.921 487.663 320.343 482.968 317.371L480.093 315.552C475.398 312.58 469.955 311.002 464.398 311.002H448.16V307.944C448.16 304.108 446.636 300.429 443.924 297.716L442.929 296.721L444.403 299.413C445.569 301.543 446.181 303.933 446.181 306.361V311.285C438.636 324.367 428.717 335.928 416.932 345.372V345.372C412.664 348.793 409.549 353.442 408.009 358.691L405.08 368.677Z" fill="#993700"/>
<path d="M447.257 258.129C445.042 258.047 441.338 257.997 439.184 257.924C420.766 257.373 404.52 270.974 402.638 289.474C402.396 291.762 402.413 294.358 402.394 296.671C402.367 299.734 402.3 307.551 402.274 310.51C402.209 318.774 399.491 327.002 394.558 333.622C388.674 341.568 379.71 347.151 369.973 348.879C367.778 349.274 365.459 349.5 363.229 349.521C362.27 349.547 361.173 349.522 360.326 349.533V344.422C361.18 344.413 362.923 344.443 363.725 344.407C380.317 344.148 394.625 331.268 396.49 314.767C396.844 312.279 396.69 308.444 396.687 305.897C396.686 302 396.509 294.556 396.625 290.744C397.273 276.147 405.872 262.255 418.586 255.054C425.165 251.287 432.755 249.403 440.337 249.377C441.986 249.316 445.61 249.255 447.257 249.2L447.257 258.129Z" fill="#993700"/>
<path d="M402.197 271.631C402.197 271.631 408.296 257.673 423.66 251.327C430.506 248.173 435.85 247.98 444.2 247.983C452.55 247.987 522.688 247.983 522.688 247.983L521.018 249.713H443.866C432.176 249.713 421.439 253.327 415.26 257.481C409.081 261.635 402.197 271.631 402.197 271.631Z" fill="#F2853B"/>
<path d="M632.995 235.738V231.473C632.995 222.576 629.461 214.043 623.169 207.752L621.498 206.08V219.598H621.498C612.731 210.832 600.841 205.907 588.444 205.907L587.489 205.971C578.01 206.607 568.708 208.849 559.979 212.599L573.167 219.433H557.972C553.818 219.433 549.835 221.083 546.898 224.02L542.231 228.687C540.607 230.311 538.405 231.223 536.108 231.223C532.803 231.223 529.633 232.536 527.295 234.873L513.34 248.829H526.604L529.291 246.142C532.888 242.545 537.766 240.524 542.853 240.524H544.613L538.483 246.655H545.482C548.094 246.655 550.6 245.617 552.448 243.77L555.961 240.256C559.569 236.648 564.463 234.621 569.565 234.621H574.166L564.837 243.95H575.226L556.025 263.152C550.317 268.859 547.111 276.6 547.111 284.671L517.576 314.206L517.445 327.78L521.002 324.223C521.002 331.171 526.634 336.803 533.582 336.803H545.236C563.12 336.803 580.272 329.699 592.918 317.053L602.023 307.948V325.089L613.749 313.363C621.659 305.453 626.103 294.725 626.103 283.538H610.134V270.597C610.134 259.101 614.701 248.077 622.829 239.948V239.948C625.525 237.252 629.182 235.738 632.995 235.738Z" fill="#F2853B"/>
<path d="M633.003 235.737V233.442C633.003 224.545 626.894 214.338 621.506 211.499V219.598H621.506C610.443 211.408 601.773 207.908 589.376 207.908L588.421 207.972C578.942 208.609 571.847 210.471 563.118 214.222L559.987 212.599L575.404 220.544H560.208C556.055 220.544 549.241 221.101 545.188 225.731L540.224 230.348C538.599 231.972 536.397 232.885 534.1 232.885C530.795 232.885 527.625 234.198 525.287 236.535L512.598 249.713H525.862L529.299 246.142C532.896 242.545 537.775 240.524 542.861 240.524H544.621L538.491 246.655H545.49C548.103 246.655 550.608 245.617 552.456 243.77L555.969 240.256C559.577 236.648 564.471 234.621 569.573 234.621H574.174L564.845 243.95C568.679 243.95 570.599 248.586 567.888 251.297L556.033 263.152C550.325 268.859 547.119 276.6 547.119 284.671L517.584 314.206L517.453 327.78L521.01 324.223C521.01 331.171 526.643 336.803 533.59 336.803H545.244C563.128 336.803 580.28 329.699 592.926 317.053L602.031 307.948V325.089L613.757 313.363C621.667 305.453 626.111 294.725 626.111 283.538H610.142V270.597C610.142 259.101 614.709 248.077 622.837 239.948V239.948C625.533 237.252 629.19 235.737 633.003 235.737Z" fill="#420900"/>
<path d="M640.571 275.966L638.6 272.081C637.589 270.087 635.827 268.576 633.702 267.882L630.225 266.745L633.922 267.574C636.19 268.083 638.147 269.504 639.331 271.504L641.573 275.289L640.571 275.966Z" fill="#F98C41"/>
<path d="M640.625 276.861L636.518 273.447C632.162 269.826 626.797 267.635 621.152 267.17L621.928 267.325C626.586 268.254 630.925 270.371 634.524 273.469L639.017 277.336L630.13 272.541C629.426 272.161 628.662 271.904 627.872 271.781L625.086 271.349C624.065 271.19 623.022 271.259 622.031 271.549L618.668 272.535L622.24 271.92C623.165 271.761 624.112 271.789 625.026 272.002L627.78 272.643C628.457 272.801 629.107 273.058 629.709 273.407L638.073 278.252L640.33 277.924L640.625 276.861Z" fill="#F98C41"/>
<path d="M639.537 278.569L633.363 275.954C632.207 275.464 630.965 275.206 629.71 275.195C627.905 275.178 626.133 275.672 624.596 276.618L622.65 277.816L625.012 276.734C626.475 276.065 628.082 275.774 629.687 275.889L629.78 275.895C630.946 275.978 632.086 276.274 633.146 276.768L638.475 279.25L639.537 278.569Z" fill="#F98C41"/>
<path d="M572.488 377.549H549.564C545.321 377.549 541.576 374.779 540.333 370.723L527.178 327.79C525.982 323.883 525.373 319.824 525.373 315.742C525.373 313.698 525.778 311.695 526.546 309.842C527.315 307.989 528.444 306.286 529.888 304.838L540.457 294.27L527.777 304.727C524.225 307.657 522.168 312.021 522.168 316.625V321.919H516.373V304.896L543.257 278.012H558.717C555.863 284.578 554.348 291.722 554.348 299.018V368.897C554.948 368.294 555.656 367.829 556.424 367.51C557.193 367.191 558.025 367.022 558.874 367.022H559.786C560.073 367.022 560.359 367.032 560.644 367.052C564.364 367.318 567.674 369.525 569.593 372.724L572.488 377.549V377.549Z" fill="#993700"/>
<path d="M366.818 344.115H341.344C344.952 347.724 349.847 349.751 354.95 349.751H356.504L352.841 353.471H357.125C361.599 353.471 365.89 351.693 369.054 348.53L370.022 347.561L366.818 344.115Z" fill="#561000"/>
<path d="M419.771 377.518C419.078 375.719 418.102 372.563 418.102 372.563C419.584 374.098 420.744 375.404 422.05 377.549L419.771 377.518Z" fill="#561000"/>
<path d="M414.958 377.518C414.265 375.719 413.289 372.563 413.289 372.563C414.772 374.098 415.931 375.404 417.238 377.549L414.958 377.518Z" fill="#561000"/>
<path d="M566.411 377.518C565.719 375.719 564.742 372.563 564.742 372.563C566.225 374.098 567.384 375.404 568.691 377.549L566.411 377.518Z" fill="#561000"/>
<path d="M561.599 377.518C560.906 375.719 559.93 372.563 559.93 372.563C561.412 374.098 562.572 375.404 563.878 377.549L561.599 377.518Z" fill="#561000"/>
<path d="M614.044 371.381C615.844 370.688 619 369.712 619 369.712C617.464 371.195 616.158 372.354 614.014 373.661L614.044 371.381Z" fill="#300700"/>
<path d="M614.044 366.568C615.844 365.876 619 364.899 619 364.899C617.464 366.382 616.158 367.541 614.014 368.848L614.044 366.568Z" fill="#300700"/>
<path d="M473.314 377.341C472.653 375.626 471.723 372.618 471.723 372.618C473.136 374.081 474.241 375.326 475.486 377.37L473.314 377.341Z" fill="#300700"/>
<path d="M468.726 377.341C468.065 375.626 467.135 372.618 467.135 372.618C468.548 374.081 469.653 375.326 470.898 377.37L468.726 377.341Z" fill="#300700"/>
<path d="M614.08 357.808L616.927 354.752L614.08 361.209V357.808Z" fill="#A91F00"/>
<path d="M632.995 235.737C632.995 235.737 626.434 235.087 621.06 241.839C615.704 248.154 613.557 252.537 612.209 257.359C612.209 257.359 618.549 245.482 624.725 241.474C629.586 238.614 631.958 238.263 631.958 238.263L653.017 263.229L632.995 235.737V235.737Z" fill="#F98C41"/>
<path d="M465.631 278.711L467.967 288.473C469.659 295.545 473.596 301.879 479.188 306.528C485.234 311.554 492.848 314.306 500.71 314.306H506.378L500.037 313.634C493.484 312.939 487.279 310.337 482.191 306.15L479.943 304.3C475.314 300.49 471.785 295.513 469.723 289.883L465.631 278.711V278.711Z" fill="#420900"/>
<path d="M1847.99 305.775C1849.56 307.348 1851.33 308.61 1853.22 309.56L1971.81 190.962C1970.6 186.359 1968.18 182.009 1964.57 178.4C1953.66 167.488 1935.97 167.488 1925.06 178.399C1920.12 183.342 1917.42 189.676 1916.95 196.138C1911.2 194.368 1904.68 195.759 1900.13 200.313C1899.74 200.696 1899.38 201.092 1899.05 201.501C1898.03 199.025 1896.52 196.709 1894.51 194.699C1886.41 186.593 1873.26 186.59 1865.15 194.699C1857.04 202.806 1857.04 215.954 1865.15 224.061C1865.24 224.145 1865.32 224.23 1865.41 224.312C1858.08 223.6 1850.51 226.047 1844.9 231.657C1834.94 241.613 1834.95 257.755 1844.9 267.712C1847.36 270.174 1850.2 272.027 1853.24 273.269C1851.34 274.219 1849.57 275.483 1847.99 277.062C1840.06 284.992 1840.06 297.846 1847.99 305.775Z" fill="#561000"/>
<path d="M999.455 306.341V313.919C999.455 314.912 999.061 315.869 998.356 316.574L993.272 321.658V334.286C993.272 337.8 991.877 341.166 989.391 343.645L983.799 349.244C981.313 351.723 979.919 355.089 979.919 358.604L984.384 354.139C985.574 352.949 987.609 353.794 987.609 355.477C987.609 355.977 987.412 356.463 987.06 356.815L979.94 363.928V372.034H968.137V353.343C968.137 349.829 969.531 346.462 972.01 343.983L978.313 337.673C980.799 335.194 982.194 331.828 982.194 328.314V326.715L978.405 322.926C976.792 321.313 975.884 319.123 975.884 316.841V314.912C975.884 314.123 976.524 313.482 977.32 313.482C977.715 313.482 978.074 313.644 978.327 313.905C978.588 314.158 978.75 314.517 978.75 314.912C978.75 316.053 978.975 317.172 979.405 318.208C979.834 319.243 980.468 320.187 981.271 320.996L982.264 321.996V309.925C982.264 306.89 984.729 304.425 987.771 304.425C989.286 304.425 990.666 305.045 991.659 306.038C992.652 307.031 993.272 308.411 993.272 309.925V316.94L995.307 314.905C996.011 314.2 996.413 313.242 996.413 312.25V306.341C996.413 305.496 997.089 304.82 997.934 304.82C998.356 304.82 998.737 304.989 999.011 305.263C999.286 305.538 999.455 305.918 999.455 306.341Z" fill="#8A1600"/>
<path d="M957.499 313.781H959.252C961.321 313.781 963.001 315.46 963.001 317.529V373.852H953.75V317.529C953.75 315.46 955.43 313.781 957.499 313.781Z" fill="#8A1600"/>
<path d="M945.815 348.561L946.38 348.116C947.046 347.591 948.014 347.705 948.54 348.372L958.373 360.85L955.393 363.199L945.559 350.72C945.034 350.054 945.149 349.086 945.815 348.561Z" fill="#8A1600"/>
<path d="M1000.85 245.276L1011.21 236.194C1011.75 235.713 1012.57 235.7 1013.13 236.165L1014.56 237.344C1016.49 238.935 1017.61 241.304 1017.61 243.803V247.494L1000.85 245.276Z" fill="#371F1F"/>
<path d="M1063.62 314.603C1063.62 314.603 1076.25 350.299 1078.46 356.458C1080.5 362.123 1078.25 370.625 1078.19 371.335C1078.19 371.4 1078.15 371.451 1078.1 371.488L1073.32 374.858C1073.31 374.869 1073.3 374.881 1073.28 374.895L1070.04 378.669C1069.92 378.811 1070.02 379.032 1070.21 379.032H1091.56C1091.68 379.032 1093.74 375.085 1093.74 374.964V345.958C1093.74 345.916 1093.73 345.876 1093.71 345.841L1074.77 315.835L1063.62 314.603Z" fill="#423330"/>
<path d="M1088.68 342.227L1066.06 318.588L1083.14 354.243C1084.46 360.685 1084.3 365.419 1083.45 369.085C1082.89 371.485 1081.64 373.664 1079.91 375.422L1076.37 379.032H1086.67L1100.21 365.427L1088.68 342.227Z" fill="#160C0C"/>
<path d="M1167.01 320.055L1174.86 349.601C1175.93 353.631 1177.75 361.721 1176.41 365.671L1175.38 368.73L1170.23 369.261C1167.52 369.713 1165.07 371.135 1163.33 373.262L1157.77 380.064H1179.33L1201.01 374.013L1197.56 359.23L1167.01 320.055V320.055Z" fill="#160C0C"/>
<path d="M1172.34 380.912H1199.19L1205.51 374.597C1207.77 372.33 1209.05 369.255 1209.05 366.049V343.954L1207.11 338.849C1203.58 329.541 1203.24 319.322 1206.15 309.801L1209.65 298.362C1212.61 288.665 1209.99 278.122 1202.82 270.951L1196.6 264.734C1185.24 253.38 1169.85 247.001 1153.79 247.001H1139.87C1132.63 247.001 1125.41 247.815 1118.35 249.426L1114.52 250.3C1109.16 251.523 1103.56 251.168 1098.39 249.277L1086.72 244.844C1084.44 243.975 1082.04 243.433 1079.6 243.234C1078.03 243.106 1076.58 242.997 1076.58 242.997C1072.13 242.997 1067.72 243.858 1063.59 245.532L1057.36 248.059C1055.71 248.732 1053.87 248.854 1052.14 248.407L1034.97 243.98C1027.33 242.011 1019.29 242.276 1011.8 244.742L1003.07 247.617L998.881 277.676L1067.13 320.301L1085.59 354.16C1087.85 358.885 1088.61 364.188 1087.79 369.36L1087.1 373.666C1087.09 373.711 1087.07 373.754 1087.04 373.786L1081.3 379.52C1081.16 379.659 1081.26 379.896 1081.46 379.896H1101.78C1101.84 379.896 1101.89 379.872 1101.93 379.831L1104.93 376.838C1108.89 372.88 1111.11 367.511 1111.11 361.914V322.149L1114.95 324.66C1130.22 334.641 1149.18 342.106 1173.94 336.932L1173.94 336.932L1182.79 350.537C1184.49 352.989 1185.4 355.9 1185.4 358.881V366.129H1187.47C1189.89 366.129 1192.21 367.09 1193.92 368.801L1196.24 371.118L1192.01 369.038C1190.76 368.421 1189.38 368.1 1187.98 368.1H1183.36C1180.6 368.1 1177.95 369.197 1176 371.149L1166.36 380.789L1172.34 380.912V380.912Z" fill="#423330"/>
<path d="M1024.65 293.699L1065.25 316.283L1079.5 312.5L1067.95 321.802L1024.65 293.699Z" fill="#160C0C"/>
<path d="M1004.3 242.251L1010.05 238.034C1011.48 237.069 1012.95 235.768 1014.56 237.344L1016.81 240.238C1016.81 240.238 1015.79 237.454 1013.44 235.635C1012.44 234.73 1011.52 235.325 1010.95 235.825L1004.3 242.251Z" fill="#FFB888"/>
<path d="M1042.71 245.976C1042.71 245.976 1051.43 249.963 1054.25 249.787C1058.62 249.793 1066.32 245.739 1071.5 244.582C1075.87 243.225 1082.07 243.601 1085.03 244.268C1085.03 244.268 1078.19 241.766 1069.99 243.551C1063.29 245.025 1056.96 248.401 1054.55 248.404C1052.14 248.407 1042.71 245.976 1042.71 245.976Z" fill="#FFB888"/>
<path d="M1109.31 250.986C1109.31 250.986 1116.71 250.628 1123.24 249.793C1129.78 248.957 1135.62 248.354 1145.87 248.253C1156.13 248.153 1165.73 249.372 1174.24 251.874C1182.75 254.377 1198.5 266.634 1198.5 266.634C1198.5 266.634 1191.78 258.127 1180.14 253.039C1168.5 247.952 1164.19 246.247 1150.7 246.351C1137.22 246.455 1134.36 247.189 1126.91 247.837C1119.46 248.485 1113.18 250.601 1109.31 250.986Z" fill="#FFB888"/>
<path d="M1004.3 248.107L1013.51 241.659C1014.15 241.213 1015.69 240.672 1017.83 243.249C1017.83 243.249 1016.13 239.516 1014.33 240.056C1012.76 240.493 1004.3 248.107 1004.3 248.107V248.107Z" fill="#8E6E67"/>
<path d="M978.98 252.645C978.98 252.645 982.772 256.4 983.089 257.238L980.824 252.645H978.98Z" fill="#FFB888"/>
<path d="M1021.43 253.777L1011.88 244.23C1010.61 242.963 1008.89 242.251 1007.1 242.251H997.217C992.682 242.251 988.334 244.053 985.127 247.259L980.122 252.264L960.586 260.174L960.322 265.507C960.322 267.508 961.517 269.315 963.358 270.098L965.581 271.044C969.756 272.821 973.552 275.383 976.76 278.592L978.159 279.99C981.213 283.044 985.355 284.76 989.673 284.76H1018.84L1021.43 253.777V253.777Z" fill="#423330"/>
<path d="M1175.9 339.941L1173.57 335.028C1172.42 332.605 1171.44 330.106 1170.63 327.549L1167.16 316.605L1169.37 328.77C1169.71 330.607 1170.13 332.427 1170.63 334.224C1170.67 334.362 1170.58 334.503 1170.44 334.525L1170.3 334.551C1154.59 337.496 1138.23 334.767 1124.64 326.357C1123.52 325.661 1122.42 324.942 1121.37 324.203L1112.84 317.931V313.69C1112.84 310.228 1111.59 306.882 1109.32 304.266L1103.23 297.235L1106.03 303.452C1107.93 307.654 1110.72 317.556 1111.11 322.149C1111.11 322.149 1116.71 325.797 1119.47 327.491C1122.24 329.185 1127.12 331.514 1127.12 331.514C1133.08 334.656 1139.33 335.914 1145.94 337.184H1145.94C1152.72 338.487 1159.66 338.75 1166.52 337.966L1171.62 337.383L1172.2 339.612L1175.9 339.941Z" fill="#160C0C"/>
<path d="M1002.87 249.109L1014.15 241.213C1014.75 240.794 1015.56 240.871 1016.07 241.394L1017.36 242.723C1019.1 244.515 1019.96 246.992 1019.68 249.476L1019.28 253.145L1002.87 249.109V249.109Z" fill="#423330"/>
<path d="M978.846 267.778L975.476 271.148L980.752 276.424C983.762 279.434 987.845 281.126 992.102 281.126H1001.48C1006.44 281.126 1011.2 279.155 1014.71 275.648L1017.36 272.995V285.638L1032.03 298.291L1014.2 287.206C1011.6 285.587 1008.59 284.731 1005.52 284.736L987.881 284.76C984.436 284.76 980.378 282.624 978.158 279.99L977.092 279.001C972.147 274.706 969.343 272.094 963.203 270.227H963.203C961.493 269.706 960.341 268.107 960.39 266.32L960.526 261.394L978.846 267.778Z" fill="#160C0C"/>
<path d="M980.124 252.264H963.669C962.159 252.264 960.914 253.451 960.842 254.96L960.738 257.147L960.528 261.394C960.409 263.797 961.975 265.96 964.296 266.597L968.309 267.698C969.98 268.5 973.254 268.806 975.107 268.806C978.22 268.806 980.124 267.638 980.124 264.526V261.908C980.124 261.463 980.301 261.036 980.616 260.721L981.319 260.018C982.561 258.775 982.809 256.851 981.921 255.335L980.124 252.264V252.264Z" fill="#8E6E67"/>
<path d="M961.699 253.061L963.992 254.026C965.219 254.74 965.437 256.423 964.433 257.426L960.586 260.174L960.828 255.124C960.859 254.43 961.116 253.764 961.56 253.229L961.699 253.061Z" fill="#160C0C"/>
<path d="M1010.37 254.348L1005.59 248.62L1015.39 242.676C1015.39 242.676 1019.18 246.119 1018.32 250.43C1017.72 253.51 1015.76 255.249 1015.76 255.249C1015.76 255.249 1018.04 248.712 1015.05 245.407L1008.74 248.695L1012.54 249.975L1008.45 250.32L1010.37 254.348V254.348Z" fill="#281515"/>
<path d="M980.121 252.264L982.587 256.199C983.311 257.355 983.247 258.839 982.425 259.928L979.725 263.506L980.121 252.264Z" fill="#8E6E67"/>
<path d="M1193.4 360.154L1185.46 366.717L1184.16 364.035L1193.4 360.154Z" fill="#160C0C"/>
<path d="M985.578 253.379C986.011 252.57 987.122 252.446 987.717 253.145C988.48 254.04 989.36 255.183 989.654 255.997C990.208 257.537 984.541 256.921 984.541 256.921C984.541 256.921 985.345 261.394 990.885 261.603C990.885 261.603 987.778 260.847 986.638 258.352C986.638 258.352 988.181 258.513 990.098 257.983C991.016 257.73 991.532 256.736 991.202 255.842C990.467 253.855 989.029 250.608 987.374 250.269C984.972 249.776 984.541 255.32 984.541 255.32L985.578 253.379Z" fill="#281515"/>
<path d="M986.444 256.473C986.962 256.473 987.383 255.991 987.383 255.395C987.383 254.8 986.962 254.317 986.444 254.317C985.925 254.317 985.504 254.8 985.504 255.395C985.504 255.991 985.925 256.473 986.444 256.473Z" fill="#2D0200"/>
<path d="M986.374 254.981C986.504 254.755 986.45 254.48 986.253 254.366C986.056 254.253 985.791 254.344 985.66 254.57C985.53 254.796 985.584 255.071 985.781 255.185C985.978 255.299 986.243 255.207 986.374 254.981Z" fill="#FFB888"/>
<path d="M971.27 252.264L980.673 253.145L986.655 247.24C988.929 244.996 991.89 243.58 995.065 243.22L1003.59 242.251H994.847C991.143 242.251 987.936 243.891 985.275 246.468L979.919 251.774L971.27 252.264Z" fill="#FFB888"/>
<path d="M1087.95 379.896C1087.95 379.896 1089.58 376.186 1092.74 375.051C1092.74 375.051 1089.71 377.489 1089.65 379.896H1087.95Z" fill="#160C0C"/>
<path d="M1093.36 379.896C1093.36 379.896 1095 376.186 1098.16 375.051C1098.16 375.051 1095.13 377.489 1095.07 379.896H1093.36Z" fill="#160C0C"/>
<path d="M1175.58 380.912C1175.58 380.912 1177.27 377.106 1180.5 375.941C1180.5 375.941 1177.4 378.442 1177.33 380.912H1175.58Z" fill="#160C0C"/>
<path d="M1181.14 380.912C1181.14 380.912 1182.82 377.106 1186.06 375.941C1186.06 375.941 1182.95 378.442 1182.89 380.912H1181.14Z" fill="#160C0C"/>
<path d="M1072.43 379.032C1072.43 379.032 1074.07 375.322 1077.22 374.187C1077.22 374.187 1074.2 376.625 1074.13 379.032H1072.43Z" fill="#160C0C"/>
<path d="M1845.1 352.4C1845.1 355.238 1844.65 357.971 1843.8 360.528H1629.83C1626.78 355.277 1625.04 349.175 1625.04 342.662C1625.04 322.977 1640.99 307.02 1660.68 307.02C1669.59 307.02 1677.75 310.296 1683.99 315.707C1687.59 308.918 1694.72 304.295 1702.94 304.295C1703.63 304.295 1704.31 304.326 1704.98 304.393C1703.66 301.246 1702.94 297.794 1702.94 294.167C1702.94 279.542 1714.79 267.68 1729.42 267.68C1744.05 267.68 1755.91 279.542 1755.91 294.167C1755.91 294.319 1755.91 294.472 1755.91 294.624C1761.87 287.374 1770.91 282.751 1781.03 282.751C1798.99 282.751 1813.55 297.314 1813.55 315.278C1813.55 319.721 1812.66 323.953 1811.05 327.81C1813.61 326.959 1816.35 326.499 1819.2 326.499C1833.51 326.499 1845.1 338.094 1845.1 352.4Z" fill="#561000"/>
<path d="M2016.36 396.749C2016.36 401.192 2015.64 405.47 2014.32 409.473H1679.39C1674.61 401.253 1671.88 391.701 1671.88 381.506C1671.88 350.692 1696.85 325.714 1727.67 325.714C1741.63 325.714 1754.39 330.842 1764.17 339.312C1769.79 328.684 1780.96 321.448 1793.82 321.448C1794.9 321.448 1795.97 321.497 1797.02 321.601C1794.96 316.675 1793.82 311.273 1793.82 305.595C1793.82 282.701 1812.38 264.134 1835.28 264.134C1858.17 264.134 1876.74 282.701 1876.74 305.595C1876.74 305.833 1876.74 306.072 1876.73 306.31C1886.07 294.961 1900.22 287.725 1916.06 287.725C1944.18 287.725 1966.97 310.521 1966.97 338.64C1966.97 345.595 1965.58 352.22 1963.05 358.258C1967.06 356.926 1971.35 356.205 1975.81 356.205C1998.21 356.205 2016.36 374.356 2016.36 396.749V396.749Z" fill="#300600"/>
<path d="M1425.24 125.902C1445.54 144.823 1465.23 164.529 1485.59 183.355C1488.37 185.51 1491.29 187.435 1494.45 188.94C1500.73 192.001 1507.66 193.671 1514.64 193.719C1517.39 193.765 1525.92 193.623 1528.88 193.62C1569.74 193.258 1700.04 192.124 1739.89 191.737C1758.42 191.304 1776.54 183.821 1789.84 170.982C1807.79 152.799 1835.19 124.245 1853.12 105.896C1857.24 101.617 1863.22 95.298 1867.94 91.6501C1883.63 78.9317 1903.63 71.6305 1923.83 71.1775C1927.61 71.0078 1962.71 70.6354 1967.15 70.5128L1967.15 96.5348L1928.77 95.9666C1927.29 95.9575 1925.54 95.8972 1924.13 95.919C1909.14 95.8046 1894.19 100.795 1882.25 109.89C1878.32 112.629 1872.67 118.518 1869.11 121.886C1855.33 135.213 1827.79 162.032 1814.03 175.356C1811.32 178.02 1806.13 183.054 1803.38 185.587C1796.77 191.587 1789.25 196.597 1781.24 200.469C1768.42 206.716 1754.19 209.854 1740.03 209.804L1701.58 209.479L1548.07 208.125C1542.58 208.052 1524.81 207.938 1519.29 207.871C1515.99 207.844 1512.24 207.834 1508.94 207.406C1497.28 206.069 1486.12 201.23 1477.09 193.777C1456.69 174.285 1437.36 153.797 1417.53 133.729L1425.24 125.902Z" fill="#9D1E00"/>
<path d="M1658.98 132.287C1673.82 146.518 1689.93 162.7 1704.51 177.37C1709.48 182.45 1714.37 187.614 1719.07 192.96L1706.46 204.473C1692.41 189.512 1678.06 171.491 1664.94 155.729C1660.41 150.238 1655.94 144.693 1651.48 139.134L1658.98 132.287Z" fill="#9D1E00"/>
<path d="M38.9683 180.54L7.58115 181.382C5.46032 181.423 1.90668 181.565 -0.0343552 181.561C-6.67969 181.61 -13.2688 180.047 -19.2668 177.125C-22.7457 175.377 -26.0622 173.199 -28.9628 170.59C-29.1619 170.555 -40.895 159.008 -41.4745 158.476L-63.9391 136.584L-72.3828 144.795L-51.083 167.906C-48.6955 170.423 -39.7004 180.498 -37.2649 182.591C-29.5169 189.726 -19.8476 194.674 -9.50533 196.809C-3.98362 198.063 2.00979 198.07 7.58116 198.217L38.9683 199.059V180.54Z" fill="#56100C"/>
<path d="M104.729 153.627C104.697 154.541 104.622 156.717 104.591 157.591C104.242 168.383 99.143 179.018 90.9113 185.917L58.627 213.149L71.1901 227.04L101.617 197.523C107.517 191.747 112.024 184.646 114.733 176.967C117.444 169.494 118.085 161.503 117.58 153.627H104.729V153.627Z" fill="#56100C"/>
<path d="M24.3411 167.352C24.1489 185.921 32.5397 204.116 45.9854 216.894C49.457 220.649 58.6847 229.865 61.7719 233.676C67.132 240.325 70.5245 248.501 71.5197 256.96C72.1869 261.449 71.4632 274.545 71.4745 279.204C71.0334 299.706 67.9109 327.485 58.6269 335.136L112.999 375.053V355.637C112.999 349.904 111.314 344.295 108.148 339.523L102.596 331.151C98.9683 325.679 96.9648 319.291 96.8179 312.728L96.7827 311.15L96.0929 279.204C95.8102 268.404 96.2286 254.472 92.6325 244.227C89.3304 233.574 83.3709 223.747 75.4324 215.899C70.321 210.833 60.7089 202.013 55.7446 196.856C48.2697 188.782 43.8255 178.084 43.3505 166.99L42.6268 135.225H25.0083L24.3412 167.352L24.3411 167.352Z" fill="#56100C"/>
<path d="M162.887 61.5398H114.836C111.719 61.5398 108.73 62.7779 106.526 64.9818L103.929 67.5786C99.3397 72.168 92.5101 74.7942 87.9207 70.2048L41.3982 20.0952C36.1463 14.8433 29.0233 11.8928 21.596 11.8928H-23.8728C-31.3 11.8928 -38.4231 14.8433 -43.675 20.0952L-56.9925 34.1876C-62.2444 39.4395 -69.3674 42.3899 -76.7947 42.3899H-112.783C-120.21 42.3899 -127.333 45.3404 -132.585 50.5923L-171.013 88.7636L-181.799 99.1343C-172.982 99.1343 -102.088 99.7813 -94.9139 98.5002H-174.573C-185.582 98.5002 -196.141 102.874 -203.925 110.658L-241.219 147.952H258.421L182.749 69.8029C177.493 64.5139 170.344 61.5398 162.887 61.5398V61.5398Z" fill="#F05400"/>
<path d="M173.242 64.166H125.191C122.074 64.166 119.085 65.4042 116.881 67.6081L114.284 70.2049C109.695 74.7942 102.254 74.7942 97.6648 70.2049L49.6081 22.1481C44.3563 16.8963 37.2332 13.9458 29.8059 13.9458H-15.6628C-23.0901 13.9458 -30.2132 16.8963 -35.4651 22.1481L-49.8074 36.4905C-55.0593 41.7424 -62.1824 44.6929 -69.6097 44.6929H-105.598C-113.025 44.6929 -120.148 47.6434 -125.4 52.8952L-164.735 91.5822L-105.698 91.2941C-96.8813 91.2941 -91.404 92.266 -85.1697 98.5003H-164.829C-175.838 98.5003 -186.396 102.874 -194.181 110.658L-231.475 147.952H268.166L193.105 72.4292C187.848 67.1401 180.699 64.166 173.242 64.166Z" fill="#9D1E00"/>
<path d="M182.22 144.88H176.131V179.116H182.22V144.88Z" fill="#9D1E00"/>
<path d="M197.216 131.804H191.127V166.04H197.216V131.804Z" fill="#9D1E00"/>
<path d="M26.3281 153.252L45.1593 153.337L195.979 153.999L154.225 112.245C147.167 105.188 137.589 101.219 127.611 101.219H93.9403C83.9621 101.219 74.3846 105.188 67.3269 112.245L26.3281 153.252Z" fill="#F05400"/>
<path d="M45.1602 153.337L195.98 153.999L154.58 112.6C149.649 110.304 144.225 109.079 138.685 109.079H105.013C95.0352 109.079 85.4578 113.047 78.3999 120.105L45.1602 153.337Z" fill="#B63000"/>
<path d="M14.5093 71.3321H22.1797V63.6617H14.5093V71.3321Z" fill="#DB6440"/>
<path d="M40.3718 94.4006H44.207V90.5654H40.3718V94.4006Z" fill="#DB6440"/>
<path d="M1692.35 59.7351H1650.65C1647.95 59.7351 1645.36 60.8096 1643.44 62.7221L1641.19 64.9756C1637.21 68.9582 1631.28 71.2373 1627.3 67.2546L1586.92 23.7695C1582.37 19.2119 1576.19 16.6515 1569.74 16.6515H1530.28C1523.84 16.6515 1517.66 19.2119 1513.1 23.7695L1501.54 35.9989C1496.98 40.5564 1490.8 43.1169 1484.36 43.1169H1453.13C1446.68 43.1169 1440.5 45.6773 1435.94 50.2349L1402.59 83.36L1393.23 92.3596C1400.89 92.3596 1462.41 92.9211 1468.63 91.8094H1399.5C1389.95 91.8094 1380.79 95.6046 1374.03 102.36L1341.67 134.723H1775.26L1709.59 66.9059C1705.03 62.316 1698.82 59.7351 1692.35 59.7351Z" fill="#F05400"/>
<path d="M1701.34 62.0141H1659.64C1656.93 62.0141 1654.34 63.0886 1652.43 65.0011L1650.17 67.2546C1646.19 71.2372 1639.73 71.2372 1635.75 67.2546L1594.05 25.551C1589.49 20.9934 1583.31 18.433 1576.86 18.433H1537.41C1530.96 18.433 1524.78 20.9934 1520.22 25.551L1507.78 37.9973C1503.22 42.5549 1497.04 45.1153 1490.59 45.1153H1459.36C1452.92 45.1153 1446.73 47.6757 1442.18 52.2333L1408.04 85.8058L1459.27 85.5559C1466.92 85.5559 1471.68 86.3993 1477.09 91.8093H1407.96C1398.41 91.8093 1389.24 95.6046 1382.49 102.36L1350.12 134.723H1783.71L1718.57 69.1849C1714.01 64.595 1707.81 62.0141 1701.34 62.0141Z" fill="#9D1E00"/>
<path d="M1401.19 132.058H1395.91V161.768H1401.19V132.058Z" fill="#9D1E00"/>
<path d="M1414.2 120.71H1408.92V150.421H1414.2V120.71Z" fill="#9D1E00"/>
<path d="M1573.85 139.323L1590.19 139.396L1721.07 139.971L1684.84 103.737C1678.71 97.6126 1670.4 94.1691 1661.74 94.1691H1632.52C1623.86 94.1691 1615.55 97.6126 1609.43 103.737L1573.85 139.323V139.323Z" fill="#F05400"/>
<path d="M1590.19 139.396L1721.07 139.971L1685.14 104.045C1680.86 102.052 1676.16 100.989 1671.35 100.989H1642.13C1633.47 100.989 1625.16 104.433 1619.03 110.558L1590.19 139.396Z" fill="#B63000"/>
<path d="M1563.59 68.2329H1570.25V61.5765H1563.59V68.2329Z" fill="#DB6440"/>
<path d="M1586.04 88.2517H1589.36V84.9235H1586.04V88.2517Z" fill="#DB6440"/>
<path d="M1482.62 117.07H1489.27V110.414H1482.62V117.07Z" fill="#DB6440"/>
<path d="M139.671 399.922C139.671 403.431 139.106 406.811 138.063 409.972H-126.495C-130.27 403.48 -132.428 395.934 -132.428 387.882C-132.428 363.543 -112.698 343.814 -88.3589 343.814C-77.3332 343.814 -67.2536 347.864 -59.5299 354.554C-55.0839 346.16 -46.2643 340.444 -36.1075 340.444C-35.2531 340.444 -34.4083 340.483 -33.5781 340.565C-35.2097 336.674 -36.1075 332.407 -36.1075 327.922C-36.1075 309.839 -21.4469 295.173 -3.35884 295.173C14.7244 295.173 29.39 309.839 29.39 327.922C29.39 328.11 29.39 328.298 29.3852 328.487C36.7614 319.522 47.9366 313.807 60.4492 313.807C82.6598 313.807 100.661 331.813 100.661 354.023C100.661 359.517 99.5603 364.75 97.5619 369.519C100.733 368.467 104.122 367.897 107.646 367.897C125.334 367.897 139.671 382.234 139.671 399.922Z" fill="#300600"/>
<path d="M1694.86 194.698L1693.15 189.699C1692.38 187.465 1692.41 185.036 1693.22 182.818C1694.48 179.378 1695.12 175.743 1695.12 172.08V170.17C1695.12 163.11 1691.27 156.611 1685.08 153.222L1661.66 140.411C1657.69 138.237 1653.23 137.098 1648.7 137.098H1594.84C1588.07 137.098 1581.58 134.41 1576.8 129.626L1553.3 106.13L1528.34 136.481L1524.89 180.441L1521.18 193.455C1521.18 193.455 1540.31 193.458 1544.69 193.41L1547.76 193.375L1529.84 219.121C1527.61 222.326 1526.42 226.136 1526.42 230.04V234.675C1526.42 236.476 1526.7 238.254 1527.25 239.947L1527.27 239.804C1527.65 236.542 1528.47 233.349 1529.71 230.313L1530.45 228.497L1531.58 228.959L1530.84 230.775C1529.65 233.709 1528.85 236.795 1528.48 239.947L1528.21 242.284C1528.63 243.143 1529.12 243.97 1529.69 244.753L1530.4 245.725C1530.74 246.188 1531.15 246.547 1531.58 246.858L1531.75 245.527C1532.36 240.58 1533.51 235.686 1535.15 230.98L1535.47 230.044L1536.63 230.448L1536.3 231.384C1534.69 236.008 1533.57 240.817 1532.96 245.677L1532.74 247.477C1534.76 248.239 1537.17 247.724 1538.62 245.848L1540.51 243.396C1542.95 240.252 1544.29 236.402 1544.34 232.428L1544.42 225.586C1544.45 222.953 1545.79 220.509 1548 219.069L1571.83 203.501C1575.36 201.194 1577.49 197.261 1577.49 193.043L1640.36 192.308L1642.76 190.868L1660.86 188.881L1647.11 181.216C1643.35 179.122 1641.02 175.156 1641.02 170.853V164.471L1666.11 192.254H1644.97L1640.36 192.308L1626.29 200.752C1624.4 201.884 1623.25 203.923 1623.25 206.123V209.561L1625.63 211.939C1627 213.31 1628.86 214.081 1630.8 214.081H1640.66C1642.6 214.081 1644.46 213.31 1645.83 211.939L1656.53 201.242H1690.18C1693.57 201.242 1695.96 197.906 1694.86 194.698Z" fill="#FFA700"/>
<path d="M1666.11 192.254L1641.02 164.471V170.853C1641.02 175.156 1643.35 179.121 1647.1 181.216L1660.86 188.881L1642.76 190.868L1640.36 192.308L1644.97 192.254H1666.11Z" fill="#FFA700"/>
<path d="M1530.84 230.775L1531.58 228.959L1530.45 228.497L1529.71 230.313C1528.47 233.349 1527.65 236.542 1527.27 239.804L1527.25 239.947C1527.51 240.748 1527.83 241.528 1528.2 242.284L1528.48 239.947C1528.85 236.795 1529.65 233.709 1530.84 230.775V230.775Z" fill="#160C0C"/>
<path d="M1536.3 231.384L1536.63 230.448L1535.48 230.044L1535.15 230.98C1533.51 235.686 1532.36 240.58 1531.75 245.527L1531.58 246.858C1531.95 247.119 1532.33 247.323 1532.74 247.477L1532.96 245.677C1533.57 240.817 1534.69 236.008 1536.3 231.384Z" fill="#160C0C"/>
<path d="M1693.19 161.784C1693.19 161.784 1693.21 170.877 1689.13 175.916C1685.06 180.955 1694.57 193.637 1694.57 193.637C1694.57 193.637 1690.9 188.867 1693.26 182.838C1695.62 176.81 1696.03 171.547 1694.91 167.332C1693.79 163.118 1693.19 161.784 1693.19 161.784Z" fill="#FCD995"/>
<path d="M1531.6 156.306C1531.29 156.367 1530.95 156.477 1530.58 156.637L1530.59 156.306H1531.6Z" fill="#FFA700"/>
<path d="M1533.6 202.986V210.942C1533.6 213.137 1532.53 215.208 1530.73 216.483L1529.82 217.121C1528.67 217.942 1527.3 218.371 1525.89 218.371H1521.43C1519.87 218.371 1518.36 217.844 1517.15 216.863L1516.51 216.348C1514.93 215.061 1514 213.124 1514 211.077V196.698H1509.96C1507.61 196.698 1505.7 194.798 1505.7 192.444V191.659C1505.7 185.15 1508.61 175.539 1513.43 171.175L1513.76 170.82L1515.63 168.846L1517.78 166.554C1520 164.544 1526.89 158.255 1530.58 156.637L1529.9 193.008L1530.42 193.682C1532.47 196.342 1533.6 199.615 1533.6 202.986V202.986Z" fill="#FFA700"/>
<path d="M1690.29 201.311H1661.12C1658.24 201.311 1655.48 202.455 1653.45 204.49L1645.93 212.013C1644.56 213.374 1642.7 214.146 1640.76 214.146H1630.89C1628.96 214.146 1627.09 213.374 1625.73 212.013L1623.76 210.039H1634.75C1637.38 210.039 1639.91 208.992 1641.78 207.128L1648.08 202.452C1651.04 199.741 1656.72 198.842 1660.38 198.842L1687.8 197.388C1689.74 197.388 1691.59 196.618 1692.96 195.248L1694.58 193.637L1694.96 194.765C1696.06 197.977 1693.67 201.311 1690.29 201.311L1690.29 201.311Z" fill="#160C0C"/>
<path d="M1627.71 210.441V208.229C1627.71 206.6 1628.36 205.039 1629.51 203.887L1632.53 200.862" stroke="#160C0C" stroke-miterlimit="10"/>
<path d="M1634 210.441V208.229C1634 206.6 1634.64 205.039 1635.8 203.887L1638.82 200.862" stroke="#160C0C" stroke-miterlimit="10"/>
<path d="M1603.75 147.35V160.528H1601.3V147.35C1601.3 143.574 1600.01 140.007 1597.64 137.114H1600.7C1602.68 140.13 1603.75 143.66 1603.75 147.35Z" fill="#160C0C"/>
<path d="M1615.56 146.921V157.12H1613.11V146.921C1613.11 143.317 1611.95 139.909 1609.8 137.114H1612.79C1614.59 140.032 1615.56 143.403 1615.56 146.921H1615.56Z" fill="#160C0C"/>
<path d="M1628.98 152.229V161.754H1626.52V152.229C1626.52 147.46 1624.67 142.986 1621.3 139.603L1618.8 137.114H1622.27L1623.03 137.874C1626.87 141.711 1628.98 146.811 1628.98 152.229H1628.98Z" fill="#160C0C"/>
<path d="M1591.71 148.404V158.812L1588.2 169.268L1585.87 168.484L1589.26 158.407V148.404C1589.26 144.065 1587.58 139.995 1584.51 136.93L1579.7 132.112C1581.87 133.706 1584.26 134.956 1586.81 135.79C1589.98 139.247 1591.71 143.685 1591.71 148.404Z" fill="#160C0C"/>
<path d="M1645.09 152.437L1643.08 161.153L1640.69 160.601L1642.7 151.898C1643.48 148.527 1643.43 144.984 1642.56 141.637L1641.39 137.114H1643.92L1644.93 141.012C1645.9 144.739 1645.95 148.698 1645.09 152.437L1645.09 152.437Z" fill="#160C0C"/>
<path d="M1665.09 152.376C1664.95 152.903 1664.77 153.406 1664.54 153.884L1664.85 162.563C1665.03 167.54 1664.05 171.659 1661.92 174.809L1657.57 181.257L1655.55 179.884L1659.89 173.436C1661.72 170.727 1662.56 167.098 1662.4 162.649L1662.18 156.703C1661.18 157.463 1659.96 157.966 1658.65 158.15C1656.21 158.505 1653.98 159.854 1652.53 161.852L1649.41 166.191L1647.41 164.757L1650.55 160.418C1652.37 157.88 1655.21 156.164 1658.31 155.723C1660.44 155.416 1662.18 153.871 1662.72 151.775L1665.15 142.312L1667.38 143.525L1665.09 152.376V152.376Z" fill="#160C0C"/>
<path d="M1684.54 155.232C1683.73 156.666 1683.34 158.297 1683.43 159.939L1683.58 163.212V163.311L1683.54 164.5L1683.53 164.549L1683.06 177.8L1680.61 177.714L1680.89 169.611C1680.8 169.697 1680.73 169.759 1680.65 169.832L1669.85 178.707L1668.29 176.819L1679.09 167.932C1680.19 167.025 1680.9 165.725 1681.09 164.316C1681.12 163.997 1681.14 163.666 1681.12 163.335V163.225L1680.98 160.062C1680.88 157.941 1681.37 155.857 1682.41 154.019L1683.39 152.29L1685.12 153.234C1685.27 153.308 1685.4 153.393 1685.54 153.479L1684.54 155.232V155.232Z" fill="#160C0C"/>
<path d="M1693.74 181.416C1693.59 181.895 1693.43 182.373 1693.26 182.838C1693.05 183.402 1692.9 183.966 1692.8 184.555L1686.04 187.754C1684.47 188.514 1682.75 188.906 1681.04 188.906C1679.68 188.906 1678.31 188.661 1677.02 188.171L1673.52 186.859L1674.39 184.567L1677.89 185.879C1680.18 186.749 1682.76 186.626 1684.97 185.535L1693.74 181.416Z" fill="#160C0C"/>
<path d="M1530.42 193.681L1523.49 184.759H1516.97L1520.96 182.696C1520.96 181.693 1521.19 179.605 1521.54 177.395C1522.17 173.45 1523.49 165.732 1526.48 161.32L1528.26 159.417L1546.57 193.376L1530.42 193.681Z" fill="#FCD995"/>
<path d="M1571.26 130.031L1527.31 136.806L1527.05 141.831L1530.41 148.206C1531.99 151.203 1534.06 153.876 1536.57 156.15L1541.09 160.244L1539.45 162.062L1534.93 157.967C1532.2 155.5 1529.95 152.601 1528.24 149.349L1526.8 146.617L1526.38 154.611L1527.71 157.394C1529.8 161.773 1532.34 165.96 1535.25 169.839L1538.71 174.444L1536.75 175.916L1533.29 171.312C1530.55 167.667 1528.16 163.749 1526.12 159.669L1526.07 160.51C1526.77 173.259 1533.33 194.936 1547.76 193.376C1547.71 184.153 1550.03 175.839 1553.67 169.197L1552.65 169.596C1550.01 170.632 1547.83 172.589 1546.53 175.107L1541.98 183.857L1539.81 182.726L1544.35 173.978C1545.93 170.933 1548.56 168.566 1551.76 167.313L1555.79 165.732C1557.13 163.772 1558.58 161.995 1560.12 160.452C1562.78 157.797 1565 154.79 1566.74 151.541L1557.97 154.798C1553.65 156.405 1549.92 159.226 1547.21 162.958L1542.39 169.583L1540.4 168.14L1545.23 161.515C1548.23 157.392 1552.34 154.275 1557.12 152.499L1568.26 148.362C1570.22 143.722 1571.26 138.698 1571.26 133.564V130.031Z" fill="#FEEDB0"/>
<path d="M1534.93 157.967L1539.45 162.062L1541.09 160.244L1536.57 156.15C1534.06 153.876 1531.99 151.203 1530.41 148.206L1527.05 141.831L1526.8 146.617L1528.24 149.349C1529.96 152.601 1532.2 155.5 1534.93 157.967Z" fill="black"/>
<path d="M1536.75 175.916L1538.71 174.443L1535.25 169.839C1532.34 165.96 1529.8 161.773 1527.71 157.394L1526.38 154.611L1526.12 159.669C1528.16 163.749 1530.55 167.667 1533.29 171.312L1536.75 175.916Z" fill="black"/>
<path d="M1545.23 161.515L1540.4 168.14L1542.39 169.583L1547.21 162.958C1549.93 159.226 1553.65 156.405 1557.97 154.798L1566.74 151.541C1567.3 150.505 1567.8 149.443 1568.26 148.362L1557.12 152.499C1552.34 154.275 1548.23 157.392 1545.23 161.515V161.515Z" fill="black"/>
<path d="M1544.35 173.978L1539.81 182.727L1541.98 183.857L1546.53 175.107C1547.84 172.589 1550.01 170.632 1552.65 169.596L1553.67 169.197C1554.34 167.984 1555.04 166.828 1555.79 165.732L1551.76 167.313C1548.56 168.566 1545.93 170.933 1544.35 173.978V173.978Z" fill="black"/>
<path d="M1562.53 104.503L1577.81 119.784H1572.69L1580.28 127.372H1574.16V137.626L1570.08 133.547L1563.1 140.522H1555.97V126.586L1562.53 104.503Z" fill="#FCD995"/>
<path d="M1558.66 133.154C1559.4 133.906 1560.62 133.908 1561.37 133.159L1569.37 125.161C1570.58 123.948 1571.26 122.303 1571.26 120.589V113.216L1569.34 111.306V120.589C1569.34 121.798 1568.87 122.94 1568.01 123.804L1558.66 133.154V133.154Z" fill="black"/>
<path d="M1530.49 104.503L1515.21 119.784H1520.32L1512.73 127.372H1518.85V137.626L1522.93 133.547L1529.91 140.522H1537.05V126.586L1530.49 104.503Z" fill="#FCD995"/>
<path d="M1534.77 132.768C1534.02 133.521 1532.8 133.523 1532.05 132.773L1524.06 124.775C1522.84 123.562 1522.16 121.918 1522.16 120.203V112.831L1524.08 110.92V120.203C1524.08 121.413 1524.55 122.555 1525.42 123.419L1534.77 132.768Z" fill="black"/>
<path d="M1566.46 113.961V118.195C1566.46 119.731 1565.84 121.19 1564.77 122.274L1559.01 128.034V135.589C1559.01 136.894 1558.56 138.161 1557.74 139.179L1554.81 142.875C1553.77 144.17 1551.92 144.449 1550.54 143.518L1547.2 141.271H1547.19L1546.59 140.859L1546.57 140.868L1546.55 140.859L1545.95 141.271H1545.94L1542.6 143.518C1541.22 144.449 1539.37 144.17 1538.33 142.875L1535.4 139.179C1534.58 138.161 1534.13 136.894 1534.13 135.589V128.034L1528.37 122.274C1527.29 121.19 1526.68 119.731 1526.68 118.195V113.961C1526.68 111.062 1527.63 108.24 1529.38 105.936L1532.59 101.703C1534.34 99.4088 1536.83 97.7961 1539.63 97.1241L1544.1 96.049L1544.54 95.9451C1545.87 95.6284 1547.26 95.6284 1548.6 95.9451L1549.04 96.049L1553.51 97.1241C1556.31 97.7961 1558.8 99.4088 1560.55 101.703L1563.76 105.936C1565.51 108.24 1566.46 111.062 1566.46 113.961Z" fill="#FFA000"/>
<path d="M1540.6 136.806L1541.21 137.218L1540.58 136.815L1540.6 136.806Z" fill="#FFA000"/>
<path d="M1540.57 136.806L1540.58 136.815L1539.96 137.218L1540.57 136.806Z" fill="#FFA000"/>
<path d="M1541.69 148.351L1540.55 147.204C1539.93 146.588 1539.58 145.751 1539.58 144.879V142.099L1543.51 138.182H1549.64L1553.56 142.099V144.879C1553.56 145.751 1553.21 146.588 1552.59 147.204L1551.45 148.351C1550.83 148.968 1549.99 149.314 1549.12 149.314H1544.02C1543.15 149.314 1542.31 148.968 1541.69 148.351Z" fill="#FCD995"/>
<path d="M1553.56 142.126V144.132C1553.56 144.267 1553.55 144.411 1553.53 144.545C1552.58 144.948 1551.46 144.862 1550.54 144.248L1547.2 142.001H1547.19L1546.59 141.589L1546.57 141.598L1546.55 141.589L1545.95 142.001H1545.94L1542.6 144.248C1541.68 144.862 1540.56 144.948 1539.61 144.545C1539.59 144.411 1539.58 144.267 1539.58 144.132V142.126C1540.54 142.539 1541.67 142.462 1542.6 141.838L1545.94 139.592H1545.95L1546.55 139.179L1546.57 139.189L1546.59 139.179L1547.19 139.592H1547.2L1550.54 141.838C1551.47 142.462 1552.6 142.539 1553.56 142.126Z" fill="black"/>
<path d="M1558.94 136.474C1558.79 137.472 1558.38 138.413 1557.74 139.21L1554.81 142.905C1553.77 144.201 1551.92 144.48 1550.54 143.549L1547.2 141.302H1547.19L1546.59 140.89L1546.57 140.899L1546.55 140.89L1545.94 141.302H1545.94L1542.59 143.549C1541.22 144.48 1539.37 144.201 1538.33 142.905L1535.4 139.21C1534.76 138.413 1534.35 137.472 1534.2 136.474C1534.58 137.597 1536.07 138 1536.97 137.098L1540.37 133.235C1541.49 132.112 1543.01 131.488 1544.6 131.488H1548.54C1550.12 131.488 1551.65 132.112 1552.76 133.235L1556.17 137.098C1557.07 138 1558.55 137.597 1558.94 136.474Z" fill="#FEEDB0"/>
<path d="M1540.37 133.235C1541.24 132.132 1542.56 131.488 1543.97 131.488H1546.57V136.806L1545.6 135.842C1545.18 135.415 1544.61 135.151 1544.01 135.096L1543.37 135.037C1542.49 134.958 1541.68 134.572 1541.07 133.948L1540.37 133.235Z" fill="black"/>
<path d="M1552.77 133.235C1551.9 132.132 1550.57 131.488 1549.17 131.488H1546.57V136.806L1547.53 135.842C1547.96 135.415 1548.52 135.151 1549.13 135.096L1549.77 135.037C1550.64 134.958 1551.46 134.572 1552.07 133.948L1552.77 133.235Z" fill="black"/>
<path d="M1546.57 135.614V141.271" stroke="black" stroke-miterlimit="10"/>
<path d="M1544.13 116.448V111.472C1544.13 110.609 1543.79 109.781 1543.18 109.171L1541.93 107.921C1541.41 107.402 1540.71 107.11 1539.97 107.11H1539.25C1538.52 107.11 1537.81 107.402 1537.29 107.921L1533.29 111.927C1532.54 112.677 1532.12 113.694 1532.12 114.754V116.966C1532.12 118.026 1532.54 119.043 1533.29 119.793L1537.42 123.923L1544.13 116.448V116.448Z" fill="#FCD995"/>
<path d="M1548.65 116.448V111.472C1548.65 110.609 1549 109.781 1549.61 109.171L1550.86 107.921C1551.37 107.402 1552.08 107.11 1552.81 107.11H1553.53C1554.27 107.11 1554.97 107.402 1555.49 107.921L1559.5 111.927C1560.25 112.677 1560.67 113.694 1560.67 114.754V116.966C1560.67 118.026 1560.25 119.043 1559.5 119.793L1555.37 123.923L1548.65 116.448V116.448Z" fill="#FCD995"/>
<path d="M1537.42 123.923L1534.13 135.589L1544.13 116.448L1537.42 123.923Z" fill="#FFC700"/>
<path d="M1555.37 123.923L1558.66 135.589L1548.65 116.448L1555.37 123.923Z" fill="#BA520E"/>
<path d="M1553.65 98.6075L1558.03 94.0851C1558.94 93.1464 1560.19 92.6165 1561.49 92.6165H1564.04C1565.03 92.6165 1565.83 93.4163 1565.83 94.403V96.4921C1565.83 97.741 1565.34 98.9411 1564.47 99.8396L1560.42 104.042L1553.65 98.6075L1553.65 98.6075Z" fill="#FFA000"/>
<path d="M1540.21 98.6075L1535.84 94.0851C1534.93 93.1464 1533.68 92.6165 1532.37 92.6165H1529.83C1528.84 92.6165 1528.04 93.4163 1528.04 94.403V96.4921C1528.04 97.741 1528.53 98.9411 1529.39 99.8396L1533.45 104.042L1540.21 98.6075V98.6075Z" fill="#FFA000"/>
<path d="M1547.45 95.7556V108.513H1545.62V102.322L1541.58 103.157C1539.88 103.56 1538.35 104.203 1536.47 106.036L1526.65 116.538V113.86L1535.16 104.76C1537.06 102.907 1538.81 101.938 1541.2 101.381L1545.62 100.469V97.6179L1541.58 98.5298C1536.87 99.4705 1535.16 101.266 1533.68 103.176L1526.97 111.038C1527.39 109.195 1528.19 107.448 1529.34 105.931L1532.56 101.698C1533.54 100.411 1534.76 99.3361 1536.13 98.5202C1536.28 98.4242 1536.44 98.3474 1536.6 98.261C1536.75 98.1842 1536.91 98.1074 1537.07 98.0306C1537.23 97.9538 1537.4 97.8866 1537.56 97.8194C1537.82 97.7042 1538.1 97.5986 1538.39 97.5027C1538.52 97.4547 1538.66 97.4066 1538.79 97.3682C1538.97 97.301 1539.16 97.2435 1539.36 97.1859C1539.51 97.1475 1539.66 97.0995 1539.82 97.0611L1540.66 96.8595C1540.83 96.8211 1541.02 96.7827 1541.2 96.7443L1545.52 95.7652L1545.66 95.7556C1545.95 95.7172 1546.25 95.7076 1546.54 95.7076C1546.84 95.7076 1547.14 95.7267 1547.45 95.7556V95.7556Z" fill="black"/>
<path d="M1545.66 95.7556V108.513H1547.48V102.322L1551.52 103.157C1553.22 103.56 1554.76 104.203 1556.64 106.036L1566.46 116.538V113.86L1557.95 104.76C1556.04 102.907 1554.3 101.938 1551.91 101.381L1547.48 100.469V97.6179L1551.52 98.5298C1556.24 99.4705 1557.95 101.266 1559.42 103.176L1566.13 111.038C1565.72 109.195 1564.91 107.448 1563.76 105.931L1560.55 101.698C1559.57 100.411 1558.35 99.3361 1556.98 98.5202C1556.82 98.4242 1556.67 98.3474 1556.51 98.261C1556.35 98.1842 1556.2 98.1074 1556.04 98.0306C1555.87 97.9538 1555.71 97.8866 1555.55 97.8194C1555.29 97.7042 1555.01 97.5986 1554.72 97.5027C1554.59 97.4547 1554.45 97.4066 1554.32 97.3682C1554.13 97.301 1553.94 97.2435 1553.75 97.1859C1553.6 97.1475 1553.44 97.0995 1553.29 97.0611L1552.44 96.8595C1552.27 96.8211 1552.09 96.7827 1551.91 96.7443L1547.59 95.7652L1547.44 95.7556C1547.16 95.7172 1546.86 95.7076 1546.57 95.7076C1546.26 95.7076 1545.97 95.7267 1545.66 95.7556V95.7556Z" fill="black"/>
<path d="M1542.83 117.885L1539.31 114.367H1534.2L1536.56 116.734H1540.1L1542.08 118.71L1542.83 117.885Z" fill="black"/>
<path d="M1549.93 117.885L1553.45 114.367H1558.56L1556.2 116.734H1552.66L1550.68 118.71L1549.93 117.885Z" fill="black"/>
<path d="M1618.84 183.292C1620.2 181.094 1620.92 178.583 1620.92 175.994V171.304C1618.27 171.908 1615.62 172.612 1612.99 173.415C1613.08 176.091 1614.15 178.596 1616.05 180.497L1618.84 183.292V183.292Z" fill="#FCD995"/>
<path d="M1647.15 181.237C1643.31 179.095 1640.95 175.023 1641 170.625L1641.02 168.861C1635.41 168.861 1629.42 169.54 1623.37 170.774V175.994C1623.37 179.221 1622.43 182.349 1620.65 185.041L1615.68 192.597L1623.67 192.503L1625.79 189.734C1627.8 187.097 1628.9 183.819 1628.9 180.504V175.18H1631.35V180.504C1631.35 184.353 1630.07 188.159 1627.74 191.22L1626.85 192.466L1640.3 192.344L1642.76 190.868L1660.86 188.881L1647.15 181.237V181.237ZM1635.08 190.738L1633 189.438L1637.39 182.417L1639.47 183.717L1635.08 190.738Z" fill="#FCD995"/>
<path d="M1623.37 170.771V175.993C1623.37 179.217 1622.43 182.355 1620.65 185.04L1615.68 192.597L1612.68 192.632L1617.47 185.395L1614.31 182.233C1612.13 180.051 1610.83 177.219 1610.58 174.179C1611.38 173.921 1612.19 173.664 1612.99 173.419C1613.07 176.091 1614.15 178.592 1616.05 180.492L1618.85 183.287C1620.19 181.093 1620.92 178.58 1620.92 175.993V171.31C1621.74 171.114 1622.55 170.943 1623.37 170.771L1623.37 170.771Z" fill="black"/>
<path d="M1617.47 185.39L1617.95 185.861L1619.68 184.128L1618.84 183.292C1618.76 183.423 1618.69 183.558 1618.6 183.687L1617.47 185.39V185.39Z" fill="black"/>
<path d="M1631.35 180.504V175.18H1628.9V180.504C1628.9 183.819 1627.8 187.097 1625.79 189.734L1623.67 192.503L1626.85 192.466L1627.74 191.22C1630.07 188.159 1631.35 184.353 1631.35 180.504Z" fill="black"/>
<path d="M1637.39 182.417L1633 189.438L1635.08 190.738L1639.47 183.717L1637.39 182.417Z" fill="black"/>
<path d="M1607.21 182.066L1601.81 192.758L1612.68 192.631L1617.47 185.39L1614.31 182.231C1612.13 180.049 1610.83 177.223 1610.58 174.182C1597.81 178.382 1585.77 185.556 1577.49 193.042L1599.06 192.79" fill="#FCD995"/>
<path d="M1604.68 181.662L1599.06 192.791L1601.81 192.758L1607.39 181.701L1604.68 181.662Z" fill="black"/>
<path d="M1660.86 188.881L1657.89 187.226L1577.49 193.043L1640.36 192.308L1642.76 190.868L1660.86 188.881Z" fill="#160C0C"/>
<path d="M1547.51 190.45L1548.26 185.788L1554.03 179.003C1556.78 175.767 1560.38 173.376 1564.43 172.089L1566.26 171.506C1569.81 170.378 1572.7 167.937 1574.42 164.631L1578.61 156.555L1580.78 157.684L1576.59 165.76C1574.58 169.646 1571.17 172.516 1567 173.843L1565.17 174.426C1561.56 175.573 1558.35 177.706 1555.9 180.592L1547.51 190.45Z" fill="black"/>
<path d="M1558.14 192.308C1558.14 192.308 1569.07 182.351 1577.1 177.298L1578.73 186.578C1578.73 186.578 1584.63 179.544 1585.7 176.973" stroke="black" stroke-width="2" stroke-miterlimit="10"/>
<path d="M1538.71 203.892C1538.71 203.892 1543.88 198.873 1553.12 199.426" stroke="black" stroke-width="2" stroke-miterlimit="10"/>
<path d="M1528.26 190.854C1522.81 183.347 1513.05 187.628 1512.63 187.813L1511.62 185.579C1511.74 185.525 1521.23 181.201 1527.86 190.336L1528.26 190.854V190.854Z" fill="black"/>
<path d="M1520.96 173.59L1518.81 174.779C1517.15 171.739 1514.36 170.955 1513.76 170.82L1515.63 168.846C1517.15 169.459 1519.43 170.795 1520.96 173.59V173.59Z" fill="black"/>
<path d="M1662.44 202.428L1672.39 202.473L1752.15 202.823L1730.07 180.743C1726.34 177.01 1721.27 174.912 1716 174.912H1698.19C1692.91 174.912 1687.85 177.01 1684.12 180.743L1662.44 202.428V202.428Z" fill="#F05400"/>
<path d="M1672.4 202.472L1752.16 202.823L1730.26 180.93C1727.65 179.715 1724.79 179.068 1721.86 179.068H1704.05C1698.77 179.068 1693.71 181.166 1689.98 184.898L1672.4 202.472Z" fill="#B63000"/>
</g>
<path d="M1919.91 361.733L1908.52 373.115C1889.15 392.488 1862.88 403.371 1835.48 403.371H449.687C436.355 403.371 421.427 405.266 412 395.839C402.573 386.412 388.332 388.647 375 388.647H165.916C79.3468 388.647 68 351.839 0.0966797 375.26V436.883H1921.24L1919.91 361.733Z" fill="black"/>
</svg>
